<?xml version="1.0" encoding="utf-8"?>
<!-- Generator: Adobe Illustrator 19.0.0, SVG Export Plug-In . SVG Version: 6.00 Build 0)  -->
<svg version="1.1" id="Layer_1" xmlns="http://www.w3.org/2000/svg" xmlns:xlink="http://www.w3.org/1999/xlink" x="0px" y="0px"
	 viewBox="241 15.1 564.3 526.9" style="enable-background:new 241 15.1 564.3 526.9;" xml:space="preserve">
<style type="text/css">
	.st0{fill:#000444;}
	.st1{fill:#F2A0CF;stroke:#000044;stroke-width:4;stroke-miterlimit:10;}
	.st2{fill:#FFFFFF;}
</style>
<g id="XMLID_2_">
	<g id="XMLID_394_">
		<path id="XMLID_444_" class="st0" d="M587,38.6c-26.8-9.9-54.8-14.8-82.7-15.1h-0.1c-2.8,0-5.7,0-8.5,0.1
			c-73,1.6-144.7,34.3-192.2,91.9c-33.4,40.5-53.1,90-57.1,143.3c-3.6,48.5,6.1,95.8,28.3,137.7c0,0.1,0.1,0.2,0.2,0.3
			c1.7,3.2,3.5,6.4,5.4,9.6c0.5,0.8,1,1.7,1.5,2.5c9,15,19.5,28.7,31.2,41.2c47.4,50.9,114.1,80.5,183.8,81.5c1.2,0,2.3,0,3.5,0
			c0.8,0,1.7,0,2.5,0c15.3-0.1,30.6-1.7,46-4.6c53-10.3,100.6-38.1,136.7-76.8c0.1-0.1,0.3-0.3,0.4-0.4c16-17.2,29.6-36.6,40.4-57.5
			c0.1-0.2,0.2-0.3,0.2-0.5c11.9-23.3,20.3-48.4,24.3-74.7c2-12.8,3-26.2,3.1-39.6C753.1,171.1,686.1,75.2,587,38.6z M747.9,316.5
			c-4.1,26.4-12.6,51.8-24.7,75.1c-0.1,0.2-0.2,0.3-0.2,0.5c-4,7.7-8.5,15.3-13.3,22.5l0,0c-1.1,1.6-2.1,3.2-3.3,4.8
			c-7.4,10.7-15.6,20.8-24.5,30.2c-0.1,0.1-0.3,0.3-0.4,0.4c-33.3,35.1-76.5,61-124.4,72.2c-3,0.7-6,1.3-9,1.9
			c-35.7,7-71.8,5.9-105.9-2.2c-47.6-11.2-91.5-36.1-125.5-72c-0.1-0.1-0.3-0.3-0.4-0.4c-9.3-9.8-17.8-20.4-25.5-31.8
			c-1-1.5-2.1-3.1-3.1-4.7c-1.3-1.9-2.5-3.9-3.7-5.8c-3-5-5.9-10.1-8.5-15.3c-0.1-0.2-0.2-0.3-0.2-0.5
			c-14.3-28.1-23.1-58.6-25.9-90.2c-0.1-1.2-0.2-2.3-0.3-3.5c-1-12.9-0.9-25.9,0.1-39.1c1.1-15.3,3.5-30.4,7.5-45l0,0
			c0-0.9,0.4-1.8,0.6-2.8c6.8-25.2,17.3-49,31.4-70.9c0.5-0.8,1-1.5,1.5-2.3c4.8-7.2,9.9-14.1,15.4-20.8
			c13.2-16,28.3-30.1,44.9-42.1c0.9-0.7,1.8-1.3,2.7-1.9c27-19,57.5-32.6,89.5-40.1c18-4.2,36.4-6.5,54.9-6.8c1.2,0,2.5,0,3.7,0
			c0.8,0,1.6,0,2.3,0c18,0.2,36,2.3,53.8,6.4l0,0c9.7,2.3,19.3,5.1,28.7,8.6C608,49,628.3,60,646.6,73.4c0.9,0.7,1.8,1.3,2.7,2
			c23.3,17.5,43.4,38.9,59.3,63c0.5,0.8,1,1.5,1.5,2.3c14,21.6,24.7,45.3,31.6,70.3c0.3,0.9,0.5,1.8,0.8,2.8
			c5.4,20.4,8.2,41.6,8.3,63.3c0,6.9-0.1,13.7-1.1,20.5l0,0c0,1.2,0,2.3-0.1,3.5C749.1,306.5,748.6,311.6,747.9,316.5z"/>
		<g id="XMLID_438_">
			<path id="XMLID_77_" class="st0" d="M586.6,92.7c21.9-4.3,43.3-10.1,64.1-17.6c-0.9-0.7-1.7-1.3-2.6-2
				c-20.2,7.1-40.8,12.8-62,16.9c-78.5,15.3-158.9,9.2-234.6-17.5c-0.9,0.6-1.8,1.3-2.7,1.9C398.1,92,449.5,100.9,501,100.9
				C529.6,101,558.2,98.2,586.6,92.7z"/>
			<path id="XMLID_76_" class="st0" d="M586.1,366.5c-90.2,17.5-182.9,6.9-268.2-30.8c-24.7-10.9-48.1-23.9-70.2-38.7
				c0.1,1.2,0.2,2.3,0.3,3.5c21.6,14.3,44.5,27,68.7,37.7c59,26.1,121.5,39.3,184.2,39.3c28.6,0,57.2-2.7,85.6-8.3
				c59.1-11.5,114.7-34.9,164.5-68.7c0.1-1.2,0.2-2.4,0.3-3.6C701.6,331.3,645.6,355,586.1,366.5z"/>
			<path id="XMLID_75_" class="st0" d="M586.6,461.4c43-8.4,84.1-23,122.5-43.4c1.1-1.6,2.1-3.2,3.2-4.8
				c-39.4,21.5-81.9,36.9-126.2,45.5c-90.2,17.5-182.9,6.9-268.2-30.8c-11.1-4.9-22-10.2-32.6-16c1,1.5,1.9,3.1,2.9,4.6
				c9.3,4.9,18.8,9.5,28.5,13.8c59,26.1,121.5,39.3,184.2,39.3C529.6,469.6,558.2,466.9,586.6,461.4z"/>
			<path id="XMLID_73_" class="st0" d="M501,285.3c28.6,0,57.3-2.7,85.6-8.3c56.1-10.9,109.2-32.5,157-63.7
				c-0.2-0.9-0.5-1.9-0.7-2.8c-47.7,31.3-100.7,52.9-156.8,63.8c-90.2,17.5-182.9,6.9-268.2-30.8c-21.6-9.6-42.3-20.6-61.8-33.1
				c-0.3,0.9-0.5,1.9-0.7,2.8c19.5,12.4,40,23.3,61.4,32.8C375.7,272.1,438.2,285.3,501,285.3z"/>
			<path id="XMLID_72_" class="st0" d="M501,193.1c28.6,0,57.3-2.7,85.6-8.3c43.7-8.5,85.6-23.5,124.6-44.5c-0.5-0.8-1-1.5-1.5-2.3
				c-38.7,20.8-80.2,35.7-123.6,44.1c-90.2,17.5-182.9,6.9-268.2-30.8c-9.8-4.3-19.4-9-28.9-14c-0.5,0.8-1,1.5-1.5,2.3
				c9.6,5,19.3,9.8,29.3,14.2C375.7,179.9,438.2,193.1,501,193.1z"/>
		</g>
		<path id="XMLID_395_" class="st0" d="M633.7,265.1L633.7,265.1c0-1,0-1.9,0-2.8c-1-30.1-4.8-59.1-11-86c-0.2-0.9-0.4-1.8-0.6-2.6
			c-0.6-2.3-1.1-4.6-1.7-6.8c-2.5-9.6-5.3-19-8.3-27.9c-2.2-6.4-4.5-12.6-7-18.6c-0.4-1-0.9-2.1-1.3-3.1c-1.5-3.4-2.9-6.7-4.5-10
			c-2.5-5.4-5.2-10.5-8-15.5c-0.2-0.4-0.4-0.8-0.6-1.1c-0.3-0.5-0.5-0.9-0.8-1.4c-1.1-1.9-2.1-3.7-3.2-5.5c0,0,0,0-0.1,0
			c-0.2,0-0.3,0.1-0.5,0.2c-0.5,0.2-1,0.4-1.4,0.6c-0.2,0.1-0.4,0.2-0.5,0.3c1,1.6,2,3.3,3,4.9c0.3,0.4,0.5,0.8,0.7,1.3
			c0.2,0.4,0.5,0.8,0.7,1.2c2.5,4.4,4.9,8.9,7.1,13.6c5.3,10.8,10,22.4,14.2,34.7c2.2,6.3,4.2,12.9,6,19.6c1.3,4.6,2.5,9.4,3.6,14.2
			c0.2,0.9,0.4,1.8,0.6,2.7c6.2,26.9,10,56,11,86.1c0,0.9,0.1,1.9,0.1,2.8c0.1,3.8,0.2,7.6,0.2,11.4c0,13.3-0.6,26.5-1.6,39.3
			c-1.1,13.9-2.9,27.5-5.3,40.6c-0.1,0.8-0.3,1.6-0.4,2.3c0,0.2-0.1,0.5-0.1,0.7c-0.3,1.4-0.5,2.7-0.8,4.1c-1.8,9.4-4,18.4-6.4,27.3
			c0,0.1,0,0.2-0.1,0.3c-5.8,21.2-13.1,40.7-21.7,57.7h3.2c8.4-17.2,15.7-36.6,21.3-57.5c0-0.2-0.1-0.3,0-0.5
			c2.4-9,4.3-18.2,6.3-27.7l0,0c1-1.5,0.7-3,1-4.5c0.1-0.4,0.2-0.7,0.3-1.1c0.1-0.6,0.3-1.3,0.4-1.9c2.3-12.8,4-26,5.1-39.5
			c1-12.8,1.5-26.1,1.5-39.5C634,273.2,633.7,269.2,633.7,265.1z M544.7,231c0-1.5-0.1-3-0.2-4.5c-0.5-12-1-23.8-1.8-35.3
			c-0.9,0.1-1.8,0.2-2.7,0.2c0.8,12,1.2,24.4,1.6,37c0.1,1.5,0,3,0,4.6l0,0c1,6.4,0.6,12.9,0.7,19.5c0.2,8.2,0.3,16.4,0.3,24.7
			c0,1.1,0,2.3,0,3.4l0,0c0,0.9,0,1.8,0,2.7c-0.1,11.3-0.3,22.5-0.6,33.3c-0.1,3.9-0.4,7.7-0.4,11.5l0,0c0,2.4,0,4.8,0,7.1l0,0
			c0,6.1-1,12.1-1,18.1l0,0c0,6.7-0.8,13.1-1.2,19.6c0.9-0.1,1.8-0.4,2.7-0.4l0,0c0.4-5,0.7-10,1-15.1c0.1-1.7,0.3-3.4,0.4-5.1
			c0.3-6.3,0-12.5,1-19l0,0c0-2,0-4,0.1-6c0.1-3.5,0.2-7.1,0.3-10.6c0.3-11,0.4-22.3,0.5-33.7c0-0.9,0-1.8,0-2.7c0-1,0-2,0-3
			c0-11.8-0.2-23.4-0.5-34.9C545,238.6,544.9,234.8,544.7,231z M535.1,117.3c0.1,0,0.2,0,0.3,0c0-0.2-0.1-0.4-0.1-0.6L535.1,117.3z
			 M459.7,372.6c-0.1-1.1-0.2-2.2-0.2-3.4c-0.1-2.1-0.3-4.1-0.4-6.2c-0.1-1.4,0-2.7-0.1-4.1c-0.1-2.3-0.3-4.7-0.3-7l0,0
			c-1-12.8-1.3-25.9-1.6-39.1c-0.2-9.8-0.4-19.7-0.5-29.6c-0.9-0.1-1.9-0.2-2.8-0.3c0,10.1,0.1,20.3,0.4,30.3
			c0.3,13.3,0.5,26.4,1.5,39.3l0,0c0,2.3,0.3,4.6,0.4,6.9c0.3,4.5,0.6,8.8,0.9,13.2C457.9,372.5,458.8,372.6,459.7,372.6
			L459.7,372.6L459.7,372.6z M393.7,427.1c-0.1-0.2-0.2-0.4-0.3-0.7c-2.4-6.1-4.6-12.5-6.6-18.9c-1.4-4.2-2.6-8.4-3.8-12.7
			c-0.3-0.9-0.5-1.8-0.7-2.7c0-0.2-0.1-0.3-0.1-0.5c-2.8-10.4-5.1-21.2-7.1-32.2c-0.2-1-0.4-2-0.5-3c-2.3-13.4-3.9-27.1-5-41
			c-1.3-16.6-1.7-33.4-1.2-50.1c0-0.9,0-1.9,0.1-2.8c0.9-29.5,4.5-58.8,10.7-86.1c-0.9-0.2-1.8-0.5-2.6-0.8
			c-6.2,27.3-9.8,56.5-10.8,86c0,0.9-0.1,1.9-0.1,2.8c-0.5,16.9-0.1,34,1.2,50.8c1,13.6,2.6,27.1,4.8,40.3c0.2,1,0.3,2,0.5,3
			c2,11.3,4.3,22.3,7.2,33c0,0.2,0.1,0.3,0.1,0.5c0.3,1,0.5,1.9,0.8,2.9c1.3,4.6,2.6,9.1,4,13.6c4.7,14.8,10.2,28.5,16.5,41.1h3.3
			c-1.6-3-3.2-6.2-4.7-9.5C397.3,435.9,395.4,431.5,393.7,427.1z M459.7,372.6c-0.1-1.1-0.2-2.2-0.2-3.4c-0.1-2.1-0.3-4.1-0.4-6.2
			c-0.1-1.4,0-2.7-0.1-4.1c-0.1-2.3-0.3-4.7-0.3-7l0,0c-1-12.8-1.3-25.9-1.6-39.1c-0.2-9.8-0.4-19.7-0.5-29.6
			c-0.9-0.1-1.9-0.2-2.8-0.3c0,10.1,0.1,20.3,0.4,30.3c0.3,13.3,0.5,26.4,1.5,39.3l0,0c0,2.3,0.3,4.6,0.4,6.9
			c0.3,4.5,0.6,8.8,0.9,13.2C457.9,372.5,458.8,372.6,459.7,372.6L459.7,372.6L459.7,372.6z M403.7,449.6h0.2
			c-1.6-3-3.2-6.2-4.7-9.5C400.6,443.3,402.1,446.5,403.7,449.6z M383,394.8c1.2,4.3,2.5,8.6,3.8,12.9c2.1,6.4,4.3,12.7,6.6,18.7
			c-2.4-6.1-4.6-12.5-6.6-18.9C385.4,403.2,384.2,399.1,383,394.8z M542.6,188.4c-0.6-8.3-1.2-16.5-1.9-24.4c-0.3-3.5-0.6-7-1-10.4
			c-0.1-1.2-0.2-2.4-0.4-3.6c-0.8-8.3-1.8-16.2-2.8-23.9c-0.4-3-0.8-5.9-1.2-8.8c-0.1,0-0.2,0-0.3,0l0.2-0.6l0,0
			c-0.3-2.3-0.7-4.6-1-6.8c-0.2-1.6-0.5-3.2-0.8-4.8c-0.9,0-1.8,0-2.7,0c0.3,1.7,0.5,3.4,0.8,5.1c0.9,5.6,1.7,11.4,2.5,17.3
			c0.9,7.2,1.8,14.6,2.6,22.3c0.1,1.3,0.3,2.7,0.4,4c0.3,3.3,0.6,6.7,0.9,10.1c0.7,8.1,1.4,16.3,1.9,24.8c0.1,0.9,0.1,1.8,0.2,2.7
			c0.9-0.1,1.8-0.2,2.7-0.2C542.7,190.3,542.7,189.4,542.6,188.4z M539.2,375.8c-0.4,5.4-0.8,10.9-1.3,15.8l0,0
			C538.4,386.4,538.9,381.2,539.2,375.8c0.1-0.4,0.1-0.8,0.1-1.2c0,0.3-0.1,0.6-0.1,1C539.2,375.7,539.2,375.7,539.2,375.8z
			 M466.5,99.6c-0.6,3.4-1.2,6.9-1.7,10.4c-0.3,2-0.6,4-0.9,6c0,0.1,0,0.1,0,0.2c-0.3,1.8-0.5,3.7-0.8,5.5c-0.3,2.2-0.6,4.5-0.9,6.8
			c-0.1,0.5-0.2,1.1-0.2,1.6c-0.1,0.9-0.2,1.8-0.3,2.8c-0.3,2.6-0.6,5.3-0.9,7.9c-1.7,15-3,30.8-4.1,47.3c-0.1,0.9-0.1,1.8-0.2,2.7
			c-1.8,28.6-2.7,58.9-2.7,89.1c0,0.9,0,1.8,0,2.8c0.9,0.1,1.8,0.2,2.7,0.3c0-0.9,0-1.8,0-2.8c0-30.3,0.8-60.5,2.6-89.2
			c0.1-0.9,0.1-1.8,0.2-2.7c1.1-16.8,2.5-33,4.2-48.3c0.4-3.9,0.9-7.8,1.4-11.6c0.2-1.7,0.7-3.4,0.7-5.1l0,0c0-2.4,0.6-4.7,0.9-7
			c0.8-5.8,1.7-11.3,2.6-16.6c0-0.2,0.1-0.5,0.1-0.7c-0.9,0-1.9,0-2.8,0.1C466.6,99.4,466.5,99.5,466.5,99.6z M459.9,375.3
			c-0.1-0.9-0.1-1.7-0.2-2.5v-0.1c-0.1-1.1-0.2-2.3-0.2-3.4c0.1,1.2,0.2,2.4,0.2,3.6c0.1,0.9,0.1,1.8,0.2,2.8
			c0.4,5.4,0.8,10.8,1.3,16l0,0c-0.5-4.9-0.9-10.5-1.3-16C459.9,375.5,459.9,375.4,459.9,375.3z M616.7,391.6c0,0.1,0,0.2-0.1,0.3
			c-5.8,21.2-13.1,40.7-21.7,57.7h0.2c8.5-17.2,15.8-36.5,21.5-57.5C616.7,391.9,616.8,391.8,616.7,391.6c2.5-8.8,4.6-17.9,6.4-27.3
			C621.3,373.7,619.2,382.7,616.7,391.6z M544.7,231c0-1.5-0.1-3-0.2-4.5c-0.5-12-1-23.8-1.8-35.3c-0.9,0.1-1.8,0.2-2.7,0.2
			c0.8,12,1.2,24.4,1.6,37c0.1,1.5,0,3,0,4.6l0,0c1,6.4,0.6,12.9,0.7,19.5c0.2,8.2,0.3,16.4,0.3,24.7c0,1.1,0,2.3,0,3.4l0,0
			c0,0.9,0,1.8,0,2.7c-0.1,11.3-0.3,22.5-0.6,33.3c-0.1,3.9-0.4,7.7-0.4,11.5l0,0c0,2.4,0,4.8,0,7.1l0,0c0,6.1-1,12.1-1,18.1l0,0
			c0,6.7-0.8,13.1-1.2,19.6c0.9-0.1,1.8-0.4,2.7-0.4l0,0c0.4-5,0.7-10,1-15.1c0.1-1.7,0.3-3.4,0.4-5.1c0.3-6.3,0-12.5,1-19l0,0
			c0-2,0-4,0.1-6c0.1-3.5,0.2-7.1,0.3-10.6c0.3-11,0.4-22.3,0.5-33.7c0-0.9,0-1.8,0-2.7c0-1,0-2,0-3c0-11.8-0.2-23.4-0.5-34.9
			C545,238.6,544.9,234.8,544.7,231z M535.1,117.3c0.1,0,0.2,0,0.3,0c0-0.2-0.1-0.4-0.1-0.6L535.1,117.3z M532.2,97.1
			c-0.3-1.6-0.6-3.2-0.9-4.8c-0.4,0.2-0.8,0.3-1.2,0.5s-0.9,0.4-1.3,0.5c0.3,1.3,0.5,2.7,0.7,4c0.2,0.9,0.3,1.8,0.5,2.7
			c0.3,1.6,0.6,3.3,0.8,5c0.9,0,1.8,0,2.7,0c-0.3-1.8-0.6-3.5-0.9-5.2C532.5,98.9,532.3,98.1,532.2,97.1z M709.6,233.4
			c-0.2-1-0.3-1.9-0.5-2.9c-3.8-23.4-10.3-45.9-19.2-66.9c-1.3-3.1-2.7-6.2-4.1-9.2c-0.2-0.4-0.4-0.9-0.6-1.3
			c-0.4-0.8-0.8-1.7-1.2-2.5c-1.4-2.9-2.8-5.7-4.3-8.5c-11.4-21.6-25.5-41.2-41.8-57.9c-1.2-1.3-2.4-2.5-3.7-3.7
			c-0.7-0.7-1.5-1.4-2.2-2.2c-5.5-5.3-11.3-10.3-17.3-14.9c-12.9-10-26.9-18.4-41.7-24.9c-5.2-2.3-10.5-4.3-15.8-6.1l0,0
			c-8.9-3-18-5.2-27.1-6.7c-8.2-1.4-16.4-2.1-24.6-2.3c-0.4,0-0.9-0.1-1.3-0.1h-0.1c-2.8-0.2-5.7-0.1-8.5,0.1
			c-0.4,0-0.8,0.1-1.3,0.1c-7.4,0.3-14.7,1-22,2.1c-10.1,1.6-20,4-29.8,7.2c-20.5,6.8-40.2,17-58.2,30.6c-5.8,4.4-11.5,9.1-17,14.2
			c-0.8,0.7-1.5,1.4-2.3,2.1c-11,10.5-21.2,22.4-30.3,35.6c-3.2,4.6-6.2,9.3-9.1,14.1c-3.9,6.6-7.6,13.4-10.9,20.4
			c-0.4,0.8-0.8,1.6-1.2,2.5c-10.1,21.6-16.9,44.8-21.9,68.8l0,0c0,3-1,6-1.5,9c-0.2,0.9-0.2,1.9-0.3,2.8c-0.5,3.3-1.2,6.7-1.2,10
			l0,0c0,1.1,0,2.3-1,3.4l0,0c-2,25.1-1.9,50.6,1.7,75.5c0.1,1.1,0.4,2.2,0.6,3.3c3.5,22.9,9.7,45.2,18.6,66.2
			c0.1,0.2,0.1,0.3,0.2,0.5c2.4,5.6,5,11.2,7.7,16.6c4.4,8.6,9.2,16.8,14.3,24.7c0.9,1.4,1.8,2.7,2.7,4c2.9,4.2,5.9,8.3,8.9,12.2
			c0.1,0.1,0.2,0.3,0.3,0.4c12.5,15.9,26.5,29.8,41.7,41.3c17.8,13.5,37.3,23.9,57.7,30.7c8.2,2.7,16.6,4.9,25,6.5
			c9.7,1.8,19.6,2.8,29.5,3c1.2,0,2.3,0,3.5,0c0.8,0,1.7,0,2.5,0c9.2-0.1,18.4-1,27.6-2.5c3.5-0.6,7-1.3,10.5-2.1
			c5.5-1.3,10.9-2.8,16.3-4.6c19.5-6.5,37.9-16.4,54.8-29.1c16.1-12,30.8-26.6,43.7-43.1c0.1-0.1,0.2-0.3,0.3-0.4
			c2.7-3.5,5.9-7.1,7.9-10.7l0,0c1-1.3,1.9-2.7,2.8-4c8.9-13.3,16.7-27.6,23.3-42.8c0.1-0.2,0.1-0.3,0.2-0.5
			c8.9-20.6,15.4-42.7,19.2-65.8c0.2-1.1,0.6-2.3,0.6-3.4l0,0c0-1.8,0.5-3.7,0.8-5.5c1.7-12.8,2.5-26.1,2.6-39.5
			C713,262.5,711.8,247.8,709.6,233.4z M544.6,41c12.3,8.6,23.6,20.6,33.8,35.2c1.9,2.8,3.8,5.7,5.7,8.6c1,1.6,2,3.3,3,4.9
			c0.3,0.4,0.5,0.8,0.7,1.3c0.2,0.4,0.5,0.8,0.7,1.2c2.5,4.4,4.9,8.9,7.1,13.6c5.3,10.8,10,22.4,14.2,34.7c2.2,6.3,4.2,12.9,6,19.6
			c1.3,4.6,2.5,9.4,3.6,14.2c0.2,0.9,0.4,1.8,0.6,2.7c6.2,26.9,10,56,11,86.1c0,0.9,0.1,1.9,0.1,2.8c0.1,3.8,0.2,7.6,0.2,11.4
			c0,13.3-0.6,26.5-1.6,39.3c-1.1,13.9-2.9,27.5-5.3,40.6c-0.1,0.8-0.3,1.6-0.4,2.3c0,0.2-0.1,0.5-0.1,0.7c-0.3,1.4-0.5,2.7-0.8,4.1
			c-1.8,9.4-4,18.4-6.4,27.3c0,0.1,0,0.2-0.1,0.3c-5.8,21.2-13.1,40.7-21.7,57.7h0.2c-0.1,0.1-0.1,0.3-0.2,0.4
			c-1.3,2.6-2.6,5.2-4,7.7c-0.6,1.1-1,2.1-1.6,3.1c-4.1,7.2-8.7,14-12.7,20.2l0,0c-12,15.7-24,28-37.5,36.2
			c-4.7,2.8-9.5,5.1-14.3,6.9c-5.8,2.2-11.8,3.5-17.6,4.1c0.7-0.6,1.3-1.2,2-1.9c1.5-1.7,3-3.8,4.5-6.4c6-10.5,11.5-28.3,16.2-51.3
			c0.2-0.9,0.4-1.8,0.6-2.8c1-5.1,1.9-10.4,2.9-15.9c0-0.1,0-0.3,0.1-0.4c1.5-9.4,3-19.5,4.3-30.1c1.1-8.8,2-18,2.9-27.5
			c0-0.2,0-0.3,0-0.5c0.5-5.3,0.9-10.6,1.3-16c0.1-0.9,0.1-1.8,0.2-2.8c0.4-5,0.7-10.1,1-15.2c0.1-1.7,0.3-3.4,0.4-5.2
			c0.3-6.3,0-12.6,1-19l0,0c0-2,0-4,0.1-6c0.1-3.5,0.2-7.1,0.3-10.6c0.3-11,0.4-22.3,0.5-33.7c0-0.9,0-1.8,0-2.7c0-1,0-2,0-3
			c0-11.8-0.2-23.4-0.5-34.9c-0.1-3.9-0.2-7.7-0.3-11.5c0-1.5-0.1-3-0.2-4.5c-0.5-12-1.1-23.8-1.8-35.3c-0.1-0.9-0.1-1.8-0.2-2.7
			c-0.6-8.3-1.2-16.5-1.9-24.4c-0.3-3.5-0.6-7-1-10.4c-0.1-1.2-0.2-2.4-0.4-3.6c-0.8-8.3-1.8-16.2-2.8-23.9c-0.4-3-0.8-5.9-1.2-8.8
			c0-0.2-0.1-0.4-0.1-0.6l0,0c-0.3-2.3-0.7-4.6-1-6.8c-0.2-1.6-0.5-3.2-0.8-4.8c-0.3-1.8-0.6-3.5-0.9-5.2c-0.2-0.9-0.3-1.8-0.5-2.7
			c-0.3-1.6-0.6-3.2-0.9-4.8c-0.3-1.8-0.7-3.7-1-5.4c-0.6-3.2-1.3-6.3-2-9.3c-3.6-16-7.7-29-12.1-38.3c-0.8-1.7-1.6-3.3-2.5-4.7
			c-2.1-3.5-4.2-6.2-6.4-8.1c10.8,1.1,21.5,4.8,31.7,10.9C540.9,38.5,542.8,39.7,544.6,41z M498.5,25.9c0.8,0,1.6-0.3,2.5-0.3h0.1
			c0.9,0,1.7,0.2,2.5,0.6c2.7,1.3,5.2,4.7,7.2,8.3c1.1,1.9,2.1,3.9,3,5.7c4.5,9.4,8.6,22.8,12.2,39.2c0.5,2.1,0.9,4.2,1.3,6.3
			c0.5,2.5,1,5,1.5,7.6c0.3,1.3,0.5,2.7,0.7,4c0.2,0.9,0.3,1.8,0.5,2.7c0.3,1.6,0.6,3.3,0.8,5c0.3,1.7,0.5,3.4,0.8,5.1
			c0.9,5.6,1.7,11.4,2.5,17.3c0.9,7.2,1.8,14.6,2.6,22.3c0.1,1.3,0.3,2.7,0.4,4c0.3,3.3,0.6,6.7,0.9,10.1c0.7,8.1,1.4,16.3,1.9,24.8
			c0.1,0.9,0.1,1.8,0.2,2.7c0.8,12,1.2,24.4,1.6,37c0.1,1.5,0,3,0,4.6l0,0c1,6.4,0.6,12.9,0.7,19.5c0.2,8.2,0.3,16.4,0.3,24.7
			c0,1.1,0,2.3,0,3.4l0,0c0,0.9,0,1.8,0,2.7c-0.1,11.3-0.3,22.5-0.6,33.3c-0.1,3.9-0.4,7.7-0.4,11.5l0,0c0,2.4,0,4.8,0,7.1l0,0
			c0,6.1-1,12.1-1,18.1l0,0c0,6.7-0.8,13.2-1.2,19.7c0,0.2,0,0.4,0,0.6c0,0.3,0,0.6-0.1,0.9c0,0.3-0.1,0.6-0.1,1c0,0.1,0,0.2,0,0.2
			c-0.4,5.4-0.8,10.9-1.3,15.8l0,0c0,0.2,0,0.3,0,0.5c-0.8,8.4-1.6,16.5-2.5,24.4c-1.4,11.8-2.9,22.9-4.6,33.2c0,0.1,0,0.3-0.1,0.4
			c-0.9,5.6-1.9,11-2.9,16.1c-0.2,0.9-0.4,1.8-0.6,2.8c-4.8,23.6-10.5,41.4-16.7,51.3c-1.1,1.7-2.2,3.2-3.3,4.4
			c-3.2,3.6-6.4,4.8-9.5,3.8c-3-1-5.9-3.8-8.8-8.3c-6.2-9.8-12-27.5-17-51.4c-0.2-0.9-0.4-1.8-0.6-2.8c-1-5-2-10.4-2.9-15.9
			c0-0.1-0.1-0.3-0.1-0.4c-2.1-12.7-4-26.6-5.6-41.7c-0.5-5.2-1.1-10.5-1.5-15.9c0-0.2,0-0.3,0-0.5l0,0c-0.5-4.9-0.9-10.5-1.3-16
			c0-0.1,0-0.2,0-0.2c-0.1-0.9-0.1-1.7-0.2-2.5v-0.1c-0.1-1.1-0.2-2.3-0.2-3.4c-0.1-2.1-0.3-4.1-0.4-6.3c-0.1-1.4,0-2.7-0.1-4.1
			c-0.1-2.3-0.3-4.7-0.3-7l0,0c-1-12.8-1.3-25.9-1.6-39.1c-0.2-9.8-0.4-19.7-0.5-29.6c0-0.9,0-1.8,0-2.8c0-30.3,0.8-60.5,2.6-89.2
			c0.1-0.9,0.1-1.8,0.2-2.7c1.1-16.8,2.5-33,4.2-48.3c0.4-3.9,0.9-7.8,1.4-11.6c0.2-1.7,0.7-3.4,0.7-5.1l0,0c0-2.4,0.6-4.7,0.9-7
			c0.8-5.8,1.7-11.3,2.6-16.6c0-0.2,0.1-0.5,0.1-0.7c0.1-0.7,0.2-1.3,0.4-2c0.1-0.4,0.2-0.8,0.2-1.3c5.3-29,11.9-50.2,18.9-61.3
			c2.8-4.5,5.7-7.3,8.6-8.3C497.8,26.1,498.1,26,498.5,25.9z M407.5,457c-1.2-2.3-2.5-4.6-3.6-7c-0.1-0.1-0.1-0.3-0.2-0.4h0.2
			c-1.6-3-3.2-6.2-4.7-9.5c-1.9-4.2-3.7-8.6-5.5-13c-0.1-0.2-0.2-0.4-0.3-0.7c-2.4-6.1-4.6-12.5-6.6-18.9c-1.4-4.2-2.6-8.4-3.8-12.7
			c-0.3-0.9-0.5-1.8-0.7-2.7c0-0.2-0.1-0.3-0.1-0.5c-2.8-10.4-5.1-21.2-7.1-32.2c-0.2-1-0.4-2-0.5-3c-2.3-13.4-3.9-27.1-5-41
			c-1.3-16.6-1.7-33.4-1.2-50.1c0-0.9,0-1.9,0.1-2.8c0.9-29.5,4.5-58.8,10.7-86.1c0.2-0.9,0.4-1.8,0.6-2.7
			c3.8-16.2,8.5-31.7,14.1-46.2c1.4-3.6,2.8-7.2,4.3-10.6c3.9-8.9,8.1-17.3,12.5-25.1c0.5-0.8,1-1.7,1.5-2.5
			c13.9-23.5,30.4-41.1,48.4-51.7c6.6-3.9,13.3-6.8,20.3-8.8c3.8-1.1,7.7-1.8,11.5-2.2c-2.2,1.9-4.3,4.6-6.4,8.1
			c-7.2,11.9-13.6,32.9-18.8,61.4c-0.1,0.3-0.1,0.5-0.2,0.8c-0.1,0.8-0.3,1.5-0.4,2.3c0,0.1-0.1,0.3-0.1,0.4
			c-0.6,3.4-1.2,6.9-1.7,10.4c-0.3,2-0.6,4-0.9,6c0,0.1,0,0.1,0,0.2c-0.3,1.8-0.5,3.7-0.8,5.5c-0.3,2.2-0.6,4.5-0.9,6.8
			c-0.1,0.5-0.2,1.1-0.2,1.6c-0.1,0.9-0.2,1.8-0.3,2.8c-0.3,2.6-0.6,5.3-0.9,7.9c-1.7,15-3,30.8-4.1,47.3c-0.1,0.9-0.1,1.8-0.2,2.7
			c-1.8,28.6-2.7,58.9-2.7,89.1c0,0.9,0,1.8,0,2.8c0,10.1,0.2,20.3,0.4,30.3c0.3,13.3,0.5,26.4,1.5,39.3l0,0c0,2.3,0.3,4.6,0.4,6.9
			c0.3,4.5,0.6,8.9,0.9,13.3c0,0.2,0,0.4,0.1,0.7c0,0.7,0.1,1.4,0.2,2.1c0.4,5.5,0.8,10.9,1.3,16.3c0,0.2,0,0.3,0,0.5
			c0.5,5.5,1,10.9,1.6,16.1c1.6,15,3.5,28.8,5.6,41.4c0,0.1,0.1,0.3,0.1,0.4c0.9,5.5,1.9,10.7,2.8,15.7c0.2,0.9,0.4,1.9,0.6,2.8
			c4.8,23.3,10.5,40.8,16.7,51.4c2.1,3.7,4.3,6.5,6.6,8.4c-8.3-1-16.7-3.5-25-7.5c-2.3-1.1-4.6-2.4-6.9-3.8
			c-19.1-11.5-36.7-31.2-51.2-56.9C408.7,459.1,408.1,458,407.5,457z M400.6,499.1c-20.1-12.7-38.5-29.2-54.4-49.1
			c-0.1-0.1-0.2-0.3-0.3-0.4c-2.7-3.4-5.3-6.9-7.8-10.5c-1-1.3-1.9-2.7-2.8-4c-5.9-8.7-11.4-17.9-16.3-27.7c-2.6-5-5-10.2-7.2-15.4
			c-0.1-0.2-0.3-0.3-0.4-0.5c-8.7-20.5-14.7-42.3-18.7-64.7l0,0c0-1.1-0.1-2.2-0.3-3.3c-4.2-27.8-4.3-56.3-0.8-84.1
			c0.2-1.7,0.6-3.4,0.8-5c0-0.3,0.3-0.7,0.3-1l0,0c0-0.6-0.1-1.2,0-1.8c0.7-4.4,2-8.8,2-13.1l0,0c5-22.5,11.7-44.4,21.3-64.8
			c0.4-0.8,0.9-1.7,1.3-2.5c4.1-8.5,8.6-16.7,13.6-24.6c2-3.2,4.1-6.4,6.2-9.5c9.3-13.5,19.8-25.6,31.1-36.2
			c0.8-0.7,1.5-1.4,2.3-2.1c9.7-8.8,20-16.6,30.7-23.3c22.6-14,47.2-23.2,72.4-27.1c-6.9,2.6-13.6,6.1-20.1,10.5
			c-16.4,11.2-31.3,28-44.1,49.8c-0.5,0.8-1,1.7-1.4,2.5c-4.4,7.6-8.4,15.8-12.2,24.6c-2.4,5.6-4.7,11.3-6.8,17.2l0,0
			c-4.6,12.6-8.5,26-11.7,39.9c-0.2,0.9-0.4,1.8-0.6,2.7c-6.2,27.3-9.8,56.5-10.8,86c0,0.9-0.1,1.9-0.1,2.8
			c-0.5,16.9-0.1,34,1.2,50.8c1,13.6,2.6,27.1,4.8,40.3c0.2,1,0.3,2,0.5,3c2,11.3,4.3,22.3,7.2,33c0,0.2,0.1,0.3,0.1,0.5
			c0.3,1,0.5,1.9,0.8,2.9c1.3,4.6,2.6,9.1,4,13.6c4.7,14.8,10.2,28.5,16.5,41.1c0.1,0.1,0.1,0.3,0.2,0.4c1,2.1,2.1,4.2,3.2,6.2
			c0.6,1.1,1.1,2.1,1.7,3.2c13.6,24.7,29.9,44,47.8,56.4c4.1,2.9,8.4,5.4,12.7,7.5c2.9,1.4,5.9,2.7,8.9,3.7
			C449,523.3,423.7,513.7,400.6,499.1z M707.7,316.5c-0.3,2.5-0.7,5-1.1,7.5c-0.2,1.1-0.4,2.3-0.5,3.4
			c-3.8,22.5-10.3,44.1-19.1,64.2c-0.1,0.2-0.1,0.3-0.2,0.5c-6.9,15.9-15.3,30.8-24.8,44.6l0,0c-0.9,1.4-1.9,2.7-2.8,4
			c-2.2,3-4.5,6-6.8,9c-0.1,0.1-0.2,0.3-0.3,0.4c-16.2,20.4-35.2,37.6-56.1,50.7c-17.4,10.9-36.2,18.9-55.8,23.5
			c-5,1.2-10,2.1-15,2.8c0.2-0.1,0.4-0.1,0.5-0.2c6.9-2.5,13.6-6.1,20.1-10.7c11.1-7.8,21.5-18.3,31.1-31.2
			c5.6-7.5,10.8-15.8,15.8-24.8c0.6-1,1.1-2.1,1.7-3.1c1.2-2.3,2.4-4.6,3.6-7c0.1-0.1,0.1-0.3,0.2-0.4c8.4-17.2,15.7-36.6,21.3-57.5
			c0-0.2-0.1-0.3,0-0.5c2.4-9,4.3-18.2,6.3-27.7l0,0c1-1.5,0.7-3,1-4.5c0.1-0.4,0.2-0.7,0.3-1.1c0.1-0.6,0.3-1.3,0.4-1.9
			c2.3-12.8,4-26,5.1-39.5c1-12.8,1.5-26.1,1.5-39.5c0-4.1-0.3-8.2-0.3-12.3l0,0c0-0.9,0-1.9,0-2.8c-1-30.1-4.8-59.1-11-86
			c-0.2-0.9-0.4-1.8-0.6-2.6c-0.6-2.3-1.1-4.6-1.7-6.8c-2.5-9.6-5.3-19-8.3-27.9c-2.2-6.4-4.5-12.6-7-18.6c-0.4-1-0.9-2.1-1.3-3.1
			c-1.5-3.4-2.9-6.7-4.5-10c-2.5-5.4-5.2-10.5-8-15.5c-0.2-0.4-0.4-0.8-0.6-1.1c-0.3-0.5-0.5-0.9-0.8-1.4c-1.1-1.9-2.1-3.7-3.2-5.5
			c-1.5-2.4-3-4.8-4.6-7.1c-10.7-15.9-22.7-28.8-35.8-37.9c-0.1-0.1-0.2-0.1-0.3-0.2c-6.5-4.6-13.3-8.1-20.2-10.6
			c15.7,2.2,31.2,6.5,46.3,13.2c9.2,4.1,18.1,8.9,26.6,14.3c10.8,6.9,21,14.9,30.5,23.9c0.8,0.7,1.5,1.4,2.3,2.2
			c2,1.9,3.9,3.8,5.8,5.8c15.5,16.2,29,35,40,55.7c1.5,2.9,3,5.9,4.5,8.8c0.4,0.8,0.8,1.6,1.2,2.5c11.3,23.9,19.4,50.1,23.8,77.6
			c0.2,0.9,0.3,1.9,0.4,2.8c2.1,13.9,3.2,28.2,3.3,42.6C710.2,290.6,709.4,303.8,707.7,316.5z M457.1,312.7c-0.7,0-1.4,0.1-2,0.2
			c-0.2,0-0.4,0.1-0.6,0.1c-0.1,0-0.2,0-0.2,0c0.3,13.3,0.5,26.4,1.5,39.3l0,0c0,0,0.8-0.1,1.2-0.2c0.2,0,0.5-0.1,0.7-0.1
			c0.3-0.1,0.2-0.1,1.2-0.2l0,0C457.7,339,457.4,325.9,457.1,312.7z M466.6,99.2c0,0.1-0.1,0.3-0.1,0.4c-0.6,3.4-1.2,6.9-1.7,10.4
			c-0.3,2-0.6,4-0.9,6c0,0.1,0,0.1,0,0.2c-0.3,1.8-0.5,3.7-0.8,5.5c-0.3,2.2-0.6,4.5-0.9,6.8c-0.1,0.5-0.2,1.1-0.2,1.6
			c-0.1,0.9-0.2,1.8-0.3,2.8c-0.3,2.6-0.6,5.3-0.9,7.9c-1.7,15-3,30.8-4.1,47.3c-0.1,0.9-0.1,1.8-0.2,2.7c0.9,0.1,1.8,0.2,2.7,0.3
			c0.1-0.9,0.1-1.8,0.2-2.7c1.1-16.8,2.5-33,4.2-48.3c0.4-3.9,0.9-7.8,1.4-11.6c0.2-1.7,0.7-3.4,0.7-5.1l0,0c0-2.4,0.6-4.7,0.9-7
			c0.8-5.8,1.7-11.3,2.6-16.6c0-0.2,0.1-0.5,0.1-0.7C468.5,99.2,467.5,99.2,466.6,99.2z M536.6,126.1c-0.1,0-0.1,0-0.2,0
			c-0.4,0.2-0.7,0.5-1,0.7c-0.1,0.1-0.2,0.1-0.3,0.2c-0.1,0.1-0.1,0.1-0.2,0.1c-0.1,0.1-0.2,0.1-0.4,0.2c-0.2,0.1-0.3,0.1-0.5,0.2
			c0.9,7.2,1.8,14.6,2.6,22.3c0.9,0.1,1.8,0.1,2.7,0.2C538.5,141.8,537.6,133.8,536.6,126.1z M456.5,280.3c0-30.3,0.8-60.5,2.6-89.2
			c-0.9-0.1-1.8-0.2-2.7-0.3c-1.8,28.6-2.7,58.9-2.7,89.1c0,0.9,0,1.8,0,2.8c0,10.1,0.2,20.3,0.4,30.3c0.1,0,0.1,0,0.2,0
			c0.2,0,0.4-0.1,0.5-0.1c0.7-0.1,1.3-0.2,2-0.2c-0.2-9.8-0.4-19.7-0.4-29.6C456.5,282.2,456.5,281.2,456.5,280.3z M459.9,375.6
			c0-0.1,0-0.2,0-0.2c-0.1-0.9-0.1-1.7-0.2-2.5v-0.1c-0.1-1.1-0.2-2.3-0.2-3.4c-0.1-2.1-0.3-4.1-0.4-6.3c-0.1-1.4,0-2.7-0.1-4.1
			c-0.1-2.3-0.3-4.7-0.3-7l0,0c-1,0.2-2,0.4-3,0.5l0,0c0,2.3,0.3,4.6,0.4,6.9c0.3,4.5,0.6,8.9,0.9,13.3c0,0.2,0,0.5,0.1,0.7
			c0,0.6,0.1,1.2,0.2,1.9c0,0.1,0,0.2,0,0.2c0.4,5.6,0.9,11.4,1.3,16.3h2.8C460.8,386.7,460.3,381.1,459.9,375.6z M457.1,312.7
			c-0.7,0-1.4,0.1-2,0.2c-0.2,0-0.4,0.1-0.6,0.1c-0.1,0-0.2,0-0.2,0c0.3,13.3,0.5,26.4,1.5,39.3l0,0c0,0,0.8-0.1,1.2-0.2
			c0.2,0,0.5-0.1,0.7-0.1c0.3-0.1,0.2-0.1,1.2-0.2l0,0C457.7,339,457.4,325.9,457.1,312.7z M535.4,117.3c0-0.2-0.1-0.4-0.1-0.6l0,0
			c-0.3-2.3-0.7-4.6-1-6.8c-0.2-1.6-0.5-3.2-0.8-4.8c-0.3-1.8-0.6-3.5-0.9-5.2c-0.2-0.9-0.3-1.8-0.5-2.7c-0.3-1.6-0.6-3.2-0.9-4.8
			c-0.4,0.2-0.8,0.3-1.2,0.5s-0.9,0.4-1.3,0.5c0.3,1.3,0.5,2.7,0.7,4c0.2,0.9,0.3,1.8,0.5,2.7c0.3,1.6,0.6,3.3,0.8,5
			c0.3,1.7,0.5,3.4,0.8,5.1c0.9,5.6,1.7,11.4,2.5,17.3c0.2-0.1,0.3-0.1,0.5-0.2c0.1,0,0.2-0.1,0.4-0.2c0.1,0,0.1-0.1,0.2-0.1
			c0.1-0.1,0.2-0.1,0.3-0.2c0.3-0.2,0.6-0.5,1-0.7c0,0,0.1,0,0.2,0C536.2,123.1,535.8,120.2,535.4,117.3z M545.1,242.5
			c-0.1-3.9-0.2-7.7-0.3-11.5c0-1.5-0.1-3-0.2-4.5c-0.5-12-1-23.8-1.8-35.3c-0.1-0.9-0.1-1.8-0.2-2.7c-0.6-8.3-1.2-16.5-1.9-24.4
			c-0.3-3.5-0.6-7-1-10.4c-0.1-1.2-0.2-2.4-0.4-3.6c-0.9-0.1-1.8-0.1-2.7-0.2c0.1,1.3,0.3,2.7,0.4,4c0.3,3.3,0.6,6.7,0.9,10.1
			c0.7,8.1,1.4,16.3,1.9,24.8c0.1,0.9,0.1,1.8,0.2,2.7c0.8,12,1.2,24.4,1.6,37c0.1,1.5,0,3,0,4.6l0,0c1,6.4,0.6,12.9,0.7,19.5
			c0.2,8.2,0.3,16.4,0.3,24.7c0,1.1,0,2.3,0,3.4l0,0c0,0.9,0,1.8,0,2.7c-0.1,11.3-0.3,22.5-0.6,33.3c-0.1,3.9-0.4,7.7-0.4,11.5l0,0
			c0,2.4,0,4.8,0,7.1l0,0c0,6.1-1,12.1-1,18.1l0,0c0,6.7-0.8,13.2-1.2,19.7c0,0.2,0,0.4,0,0.6c0,0.3,0,0.6-0.1,0.9
			c0,0.3-0.1,0.6-0.1,1c0,0.1,0,0.2,0,0.2c-0.4,5.4-0.8,10.9-1.3,15.8h2.7c0.5-4.9,1-10.5,1.4-16c0-0.1,0-0.2,0-0.2
			c0.1-0.9,0.1-1.6,0.2-2.5v-0.1c0.4-5,0.7-10,1-15.1c0.1-1.7,0.3-3.4,0.4-5.2c0.3-6.3,0-12.6,1-19l0,0c0-2,0-4,0.1-6
			c0.1-3.5,0.2-7.1,0.3-10.6c0.3-11,0.4-22.3,0.5-33.7c0-0.9,0-1.8,0-2.7c0-1,0-2,0-3C545.5,265.6,545.4,253.9,545.1,242.5z
			 M459.7,372.6c-0.1-1.1-0.2-2.2-0.2-3.4c-0.1-2.1-0.3-4.1-0.4-6.2c-0.1-1.4,0-2.7-0.1-4.1c-0.1-2.3-0.3-4.7-0.3-7l0,0
			c-1-12.8-1.3-25.9-1.6-39.1c-0.2-9.8-0.4-19.7-0.5-29.6c-0.9-0.1-1.9-0.2-2.8-0.3c0,10.1,0.1,20.3,0.4,30.3
			c0.3,13.3,0.5,26.4,1.5,39.3l0,0c0,2.3,0.3,4.6,0.4,6.9c0.3,4.5,0.6,8.8,0.9,13.2C457.9,372.5,458.8,372.6,459.7,372.6
			L459.7,372.6L459.7,372.6z M393.7,427.1c-0.1-0.2-0.2-0.4-0.3-0.7c-2.4-6.1-4.6-12.5-6.6-18.9c-1.4-4.2-2.6-8.4-3.8-12.7
			c-0.3-0.9-0.5-1.8-0.7-2.7c0-0.2-0.1-0.3-0.1-0.5c-2.8-10.4-5.1-21.2-7.1-32.2c-0.2-1-0.4-2-0.5-3c-2.3-13.4-3.9-27.1-5-41
			c-1.3-16.6-1.7-33.4-1.2-50.1c0-0.9,0-1.9,0.1-2.8c0.9-29.5,4.5-58.8,10.7-86.1c-0.9-0.2-1.8-0.5-2.6-0.8
			c-6.2,27.3-9.8,56.5-10.8,86c0,0.9-0.1,1.9-0.1,2.8c-0.5,16.9-0.1,34,1.2,50.8c1,13.6,2.6,27.1,4.8,40.3c0.2,1,0.3,2,0.5,3
			c2,11.3,4.3,22.3,7.2,33c0,0.2,0.1,0.3,0.1,0.5c0.3,1,0.5,1.9,0.8,2.9c1.3,4.5,2.6,8.9,4,13.4c4.8,14.9,10.4,29.3,16.7,41.3h3
			c-1.6-3-3.2-6.2-4.7-9.5C397.3,435.9,395.4,431.5,393.7,427.1z M456.5,280.3c0-30.3,0.8-60.5,2.6-89.2c-0.9-0.1-1.8-0.2-2.7-0.3
			c-1.8,28.6-2.7,58.9-2.7,89.1c0,0.9,0,1.8,0,2.8c0,10.1,0.2,20.3,0.4,30.3c0.1,0,0.1,0,0.2,0c0.2,0,0.4-0.1,0.5-0.1
			c0.7-0.1,1.3-0.2,2-0.2c-0.2-9.8-0.4-19.7-0.4-29.6C456.5,282.2,456.5,281.2,456.5,280.3z M459.9,375.6c0-0.1,0-0.2,0-0.2
			c-0.1-0.9-0.1-1.7-0.2-2.5v-0.1c-0.1-1.1-0.2-2.3-0.2-3.4c-0.1-2.1-0.3-4.1-0.4-6.3c-0.1-1.4,0-2.7-0.1-4.1
			c-0.1-2.3-0.3-4.7-0.3-7l0,0c-1,0.2-2,0.4-3,0.5l0,0c0,2.3,0.3,4.6,0.4,6.9c0.3,4.5,0.6,8.9,0.9,13.3c0,0.2,0,0.5,0.1,0.7
			c0,0.6,0.1,1.2,0.2,1.9c0,0.1,0,0.2,0,0.2c0.4,5.6,0.9,11.4,1.3,16.3h2.8C460.8,386.7,460.3,381.1,459.9,375.6z M457.1,312.7
			c-0.7,0-1.4,0.1-2,0.2c-0.2,0-0.4,0.1-0.6,0.1c-0.1,0-0.2,0-0.2,0c0.3,13.3,0.5,26.4,1.5,39.3l0,0c0,0,0.8-0.1,1.2-0.2
			c0.2,0,0.5-0.1,0.7-0.1c0.3-0.1,0.2-0.1,1.2-0.2l0,0C457.7,339,457.4,325.9,457.1,312.7z M535.4,117.3c0-0.2-0.1-0.4-0.1-0.6l0,0
			c-0.3-2.3-0.7-4.6-1-6.8c-0.2-1.6-0.5-3.2-0.8-4.8c-0.3-1.8-0.6-3.5-0.9-5.2c-0.9,0.1-1.8,0.1-2.7,0.2c0.3,1.6,0.6,3.3,0.8,5
			c0.3,1.7,0.5,3.4,0.8,5.1c0.9,5.6,1.7,11.4,2.5,17.3c0.2-0.1,0.3-0.1,0.5-0.2c0.1,0,0.2-0.1,0.4-0.2c0.1,0,0.1-0.1,0.2-0.1
			c0.1-0.1,0.2-0.1,0.3-0.2c0.3-0.2,0.6-0.5,1-0.7c0,0,0.1,0,0.2,0C536.2,123.1,535.8,120.2,535.4,117.3z M545.1,242.5
			c-0.1-3.9-0.2-7.7-0.3-11.5c0-1.5-0.1-3-0.2-4.5c-0.5-12-1-23.8-1.8-35.3c-0.1-0.9-0.1-1.8-0.2-2.7c-0.6-8.3-1.2-16.5-1.9-24.4
			c-0.3-3.5-0.6-7-1-10.4c-0.1-1.2-0.2-2.4-0.4-3.6c-0.9-0.1-1.8-0.1-2.7-0.2c0.1,1.3,0.3,2.7,0.4,4c0.3,3.3,0.6,6.7,0.9,10.1
			c0.7,8.1,1.4,16.3,1.9,24.8c0.1,0.9,0.1,1.8,0.2,2.7c0.8,12,1.2,24.4,1.6,37c0.1,1.5,0,3,0,4.6l0,0c1,6.4,0.6,12.9,0.7,19.5
			c0.2,8.2,0.3,16.4,0.3,24.7c0,1.1,0,2.3,0,3.4l0,0c0,0.9,0,1.8,0,2.7c-0.1,11.3-0.3,22.5-0.6,33.3c-0.1,3.9-0.4,7.7-0.4,11.5l0,0
			c0,2.4,0,4.8,0,7.1l0,0c0,6.1-1,12.1-1,18.1l0,0c0,6.7-0.8,13.2-1.2,19.7c0,0.2,0,0.4,0,0.6c0,0.3,0,0.6-0.1,0.9
			c0,0.3-0.1,0.6-0.1,1c0,0.1,0,0.2,0,0.2c-0.4,5.4-0.8,10.9-1.3,15.8h2.7c0.5-4.9,1-10.5,1.4-16c0-0.1,0-0.2,0-0.2
			c0.1-0.9,0.1-1.6,0.2-2.5v-0.1c0.4-5,0.7-10,1-15.1c0.1-1.7,0.3-3.4,0.4-5.2c0.3-6.3,0-12.6,1-19l0,0c0-2,0-4,0.1-6
			c0.1-3.5,0.2-7.1,0.3-10.6c0.3-11,0.4-22.3,0.5-33.7c0-0.9,0-1.8,0-2.7c0-1,0-2,0-3C545.5,265.6,545.4,253.9,545.1,242.5z
			 M633.7,265.1L633.7,265.1c0-1,0-1.9,0-2.8c-1-30.1-4.8-59.1-11-86c-0.2-0.9-0.4-1.8-0.6-2.6c-0.6-2.3-1.1-4.6-1.7-6.8
			c-2.5-9.6-5.3-19-8.3-27.9c-2.2-6.4-4.5-12.6-7-18.6c-0.4-1-0.9-2.1-1.3-3.1c-1.5-3.4-2.9-6.7-4.5-10c-2.5-5.4-5.2-10.5-8-15.5
			c-0.2-0.4-0.4-0.8-0.6-1.1c-0.3-0.5-0.5-0.9-0.8-1.4c-1.1-1.9-2.1-3.7-3.2-5.5c0,0,0,0-0.1,0c-0.2,0-0.3,0.1-0.5,0.2
			c-0.5,0.2-1,0.4-1.4,0.6c-0.2,0.1-0.4,0.2-0.5,0.3c1,1.6,2,3.3,3,4.9c0.3,0.4,0.5,0.8,0.7,1.3c0.2,0.4,0.5,0.8,0.7,1.2
			c2.5,4.4,4.9,8.9,7.1,13.6c5.3,10.8,10,22.4,14.2,34.7c2.2,6.3,4.2,12.9,6,19.6c1.3,4.6,2.5,9.4,3.6,14.2c0.2,0.9,0.4,1.8,0.6,2.7
			c6.2,26.9,10,56,11,86.1c0,0.9,0.1,1.9,0.1,2.8c0.1,3.8,0.2,7.6,0.2,11.4c0,13.3-0.6,26.5-1.6,39.3c-1.1,13.9-2.9,27.5-5.3,40.6
			c-0.1,0.8-0.3,1.6-0.4,2.3c0,0.2-0.1,0.5-0.1,0.7c-0.3,1.4-0.5,2.7-0.8,4.1c-1.8,9.4-4,18.4-6.4,27.3c0,0.1,0,0.2-0.1,0.3
			c-5.8,21.2-13.1,40.7-21.7,57.7h3c8.5-17,15.8-36.6,21.5-57.7c0-0.1,0-0.2,0.1-0.3c2.4-9,4.6-18.2,6.5-27.7l0,0
			c0.3-1.5,0.6-3,0.8-4.5l0,0c0.1-0.3,0.1-0.7,0.2-1c0.1-0.6,0.2-1.3,0.3-1.9c2.3-12.8,3.9-26,5-39.5c1-12.8,1.5-26.1,1.5-39.5
			C634,273.2,633.7,269.2,633.7,265.1z M544.7,231c0-1.5-0.1-3-0.2-4.5c-0.5-12-1-23.8-1.8-35.3c-0.9,0.1-1.8,0.2-2.7,0.2
			c0.8,12,1.2,24.4,1.6,37c0.1,1.5,0,3,0,4.6l0,0c1,6.4,0.6,12.9,0.7,19.5c0.2,8.2,0.3,16.4,0.3,24.7c0,1.1,0,2.3,0,3.4l0,0
			c0,0.9,0,1.8,0,2.7c-0.1,11.3-0.3,22.5-0.6,33.3c-0.1,3.9-0.4,7.7-0.4,11.5l0,0c0,2.4,0,4.8,0,7.1l0,0c0,6.1-1,12.1-1,18.1l0,0
			c0,6.7-0.8,13.1-1.2,19.6c0.9-0.1,1.8-0.4,2.7-0.4l0,0c0.4-5,0.7-10,1-15.1c0.1-1.7,0.3-3.4,0.4-5.1c0.3-6.3,0-12.5,1-19l0,0
			c0-2,0-4,0.1-6c0.1-3.5,0.2-7.1,0.3-10.6c0.3-11,0.4-22.3,0.5-33.7c0-0.9,0-1.8,0-2.7c0-1,0-2,0-3c0-11.8-0.2-23.4-0.5-34.9
			C545,238.6,544.9,234.8,544.7,231z M535.1,117.3c0.1,0,0.2,0,0.3,0c0-0.2-0.1-0.4-0.1-0.6L535.1,117.3z"/>
	</g>
	<g id="XMLID_306_">
		<g id="XMLID_307_">
			<g id="XMLID_308_">
				<g id="XMLID_289_">
					<path id="XMLID_317_" class="st0" d="M672.4,368.1c-0.8,0-1.6,0.4-2.4,0.5c-2.2,0.3-3.8-1.3-5.7-2.1c-3.3-1.4-7.5-0.4-11.6,0.6
						c-0.9,0.2-1.9,0.5-2.7,1c-0.7,0.5-1.6,1.3-2.3,1c-0.4-0.2-0.5-0.7-0.8-1c-0.4-0.4-1-0.5-1.7-0.5c-4.9-0.1-9.9-0.2-15-0.4
						c-1.5-0.1-3.2-0.2-3.9-1.5c-0.2-0.4-0.3-1-0.4-1.5c-1-5.4-5.8-9.6-11.7-10c-2-0.1-4.1,0.1-6.2,0.3c-8.7,0.6-17.4-1.5-24.8-5.9
						c-0.8-0.5-1.7-1-2.6-0.9c-1.6,0.1-2.7,1.8-4.2,2.3c-1.6,0.6-3.3,0-4.9,0.1c-2.7,0.2-5,2.3-7.6,2.8c-2.4,0.4-4.8-0.5-7.2-0.9
						s-5.4,0-6.6,2.2c-0.6,1.2-0.6,2.6-1.1,3.8c-0.5,1.2-2.3,2.2-3.2,1.3c-0.3-2.7,0.3-5.4,1.5-7.9c-4.3,1.2-8.6,2.4-12.3,5
						c-3.6,2.5-6.4,6.6-6.1,10.7c-2.9-0.3-5.8-1-8.6-1.6c-3.7-0.8-6.3,4.6-10,4.4c-0.7,0-1.3-0.3-2-0.5c-2.7-1-5.5-2.2-6.8-4.6
						c-1-2.1-0.6-4.6-0.6-6.9c0-2.4-0.7-5.1-2.9-6c-1-0.4-2.1-0.4-3.2-0.3c-2.1,0.2-4.1,0.6-6.1,1.4c-3.5,1.3-7.3,3.4-10.6,1.8
						c-0.5-1.8-0.1-3.8,1.1-5.3c0.6-0.8,1.4-1.4,1.8-2.3c0.6-1.5-0.3-3.3,0.1-4.9c0.4-1.8,2.3-2.9,3.6-4.2c1.3-1.3,2-3.9,0.4-4.9
						c-4,1.5-8,3-11.9,4.4c-1.3,0.5-2.7,1-3.6,2.2c-1.5,2-0.8,4.9-2,7c-0.5,0.8-1.2,1.4-1.9,1.9c-4.1,3-9.2,4.4-14.3,4
						c-2.4-0.2-4.9-1-6.4-2.9c-1.4-1.7-1.7-4.1-1.9-6.3c-0.5-4.9-0.9-9.7-1.4-14.7c-0.1-1.1-0.2-2.2,0.3-3.2
						c0.4-0.9,1.2-1.5,1.7-2.3c0.6-1,0.7-2.3,1.2-3.4c0.7-1.7,2.1-3.1,3.6-4.1c4.2-2.8,9.7-3.6,14.6-2.1c1.2,0.4,2.4,0.9,3.7,0.7
						c1.3-0.1,2.5-1.2,2.4-2.4c-0.1-0.6-0.4-1.1-0.5-1.7c-0.5-2.2,2-3.9,4.1-4.6c4.2-1.5,8.9-2.4,13-0.8c0.7,0.3,1.4,0.6,2.1,0.7
						c2.2,0.2,4.2-2.2,6.3-1.4c1.3,0.6,1.8,2.2,1.8,3.7c0,1.4-0.3,2.9,0.2,4.3c1,2.7,4.4,3.4,6.5,5.4c0.7,0.7,1.4,1.7,2.4,1.9
						c1.4,0.3,2.7-0.9,3.1-2.2c0.4-1.4,0-2.8-0.4-4.1c-0.9-2.8-1.8-5.6-2.9-8.4c-1.4-3.8-3-8.5-0.3-11.6c1.2-1.4,3.1-2.2,4.4-3.5
						c1.5-1.4,2.3-3.5,3.8-4.9c2.1-1.9,5.4-2.3,7.2-4.6c3-3.9-0.7-9.8,1.2-14.3c0.4,1.8,3.1,2,4.4,0.8s1.6-3.2,1.9-5s0.7-2.7,2-3.9
						c2.6-2.4,5.9-3.9,9.4-4.3c1.3-0.2,2.7-0.2,3.9-0.8c1.2-0.6,2-2,1.5-3.2c-0.3-0.6-0.9-1-1.3-1.6c-0.7-1-0.4-2.4,0.3-3.4
						c0.7-1,1.7-1.6,2.7-2.3c4.1-2.6,8.3-5,12.6-7.3c1.6-0.8,3.4-1.7,5.1-1.1c-0.3,1.4-1.9,2.1-3.3,2.7c-1.3,0.6-2.8,1.9-2.4,3.3
						c0.3,1.3,2.1,1.9,3.4,1.6c1.3-0.3,2.3-1.3,3.3-2.2c3.7-3.1,8.3-5,13.1-5.5c0.4-1-0.7-2.1-1.9-2.2c-1.1-0.1-2.2,0.4-3.3,0.6
						c-3.6,0.7-7.6-2-8.3-5.6c-0.1-0.5-0.1-1,0-1.5c0.2-0.5,0.6-1,0.7-1.5c0.4-1.4-0.7-2.9-2.1-2.5c-2.2,0.5-4.4,0.9-6.6,1.4
						c-0.9,0.2-1.8,0.4-2.6,0.9c-1.6,1-2.3,2.9-3.5,4.3c-1.4,1.6-3.5,2.5-5.2,3.7c-1.2,0.9-2.3,1.9-3.6,2.7c-1.3,0.7-3,1.1-4.4,0.5
						c3.1-4.9,8-8.3,13.2-10.7c2-5.4,8.1-8.3,13.9-9.1c5.8-0.8,11.8-0.1,17.6-0.6c0.5-0.1,1.1-0.1,1.5-0.4c0.8-0.4,1.2-1.3,1.8-2
						c2.1-2.7,6.5-2.9,9-5.2c0.8-0.7,1.5-1.8,1.4-2.9c-0.1-0.7-0.4-1.4-0.8-1.9c-1.5-2.1-4-3.1-6.4-4.2c-2.6-1.2-5.1-2.7-7.4-4.4
						c-0.8-0.6-1.6-1.2-2.2-1.9c-0.8-0.9-1.3-2-1.8-3.1c-2-4.5-4.1-8.9-6.1-13.2c-0.2-0.5-0.6-1-1.1-1c-1.5,3.1-5,5-8.4,6.8
						c-1.4,0.7-2.9,1.5-4.6,1.1c-2.6-0.6-3.8-3.4-4.5-5.8c-0.2-0.7-0.4-1.6,0-2.2c0.3-0.4,0.9-0.6,1.2-1c1-1.1-0.8-2.9-2.4-3.3
						c-1.7-0.4-3.5-0.2-4.9-1.1c-1.2-0.8-1.7-2.3-2.9-3.1c-1.1-0.8-2.7-0.9-4.1-1c-2.1-0.1-4.2-0.2-6.3-0.2
						c-1.6-0.1-3.3-0.1-4.6,0.8c-2.6,1.8-1,5.5-1.4,8.6c-0.2,2.2-1.6,4.2-3.7,5.3c-1.2,0.6-2.7,1.3-2.6,2.5c0,0.4,0.3,0.9,0.6,1.3
						c1.2,1.8,2.4,3.7,3.6,5.5c0.4,0.6,0.8,1.2,0.8,1.9c0,0.8-0.4,1.5-0.8,2.1c-2.4,3.8-5.7,8.1-10.5,8.1c-0.5,0-1.1,0-1.4,0.3
						c-0.5,0.4-0.3,1.2,0,1.8c1.5,3.9,1.9,8.2,1.3,12.4c-0.1,0.5-0.2,1-0.6,1.3c-0.4,0.3-0.9,0.3-1.3,0.3c-2.3,0-4.7-0.6-6.5-2
						s-3-3.7-2.6-5.9c0.3-1.6,1.4-2.9,1.9-4.4s0.1-3.6-1.4-4.1c-0.7-0.3-1.5-0.1-2.3,0c-3.7,0.5-7.6,0.1-11.1-1.4
						c-3-1.2-5.6-3.1-8.6-4.1c-3.7-1.2-7.5-0.9-11.3-0.8c-0.3-2.1-0.6-4.1-0.9-6.2c0-0.3-0.1-0.7-0.3-0.9c-0.6-0.6-1.6,0.2-2.5,0.3
						c-1.2,0.2-2.2-1.1-2.2-2.2c0-1.2,0.7-2.3,1.4-3.2c4.4-6.3,10-11.7,16.3-15.9c0.9-0.6,2-1.4,2.1-2.4c0.1-0.7-0.2-1.4,0-2.1
						c0.4-1.2,2-1.5,3.4-1.7c2.1-0.2,4.3-0.4,6.4-0.5c-0.3-2-2.7-4-1.5-5.8c3-0.5,6.6,0.9,8.9-0.8c1-0.8,1.5-2,2.2-3
						c1.2-1.7,3.3-2.8,5.6-2.9c2-0.1,4.5,0.4,5.9-0.9c0.4-0.4,0.7-0.8,1.1-1.2c1.3-1.2,3.7-1,5.1-2c2-1.6,0.5-4.3,0.4-6.6
						c0-0.4,0-0.7,0.3-1c0.4-0.4,1-0.4,1.5-0.6c1.2-0.5,1.5-1.9,0.9-3c-0.6-1.1-1.8-1.8-3.1-2.5c-1.7-0.9-4.3-1.7-5.2-0.3
						c-1.2,0.6-0.2,2.2-0.7,3.3c-0.4,1-1.9,1.4-3,2.1c-2.3,1.4-2.9,4.6-5.7,5.1c-1.3,0.2-2.7-0.2-3.4-1.1c-0.7-0.9-0.8-2.1-0.1-3
						c0.6-0.8,1.8-1.5,1.5-2.4c-0.2-0.9-1.8-1.1-2.7-0.7c-0.9,0.5-1.3,1.4-1.6,2.2c-0.1,0.4-0.3,0.9-0.6,1.2
						c-0.4,0.3-1.1,0.4-1.4,0.1c0.6-0.7,0.3-1.7-0.3-2.4c-0.6-0.7-1.5-1.2-2.2-1.8c-1.4-1.3-1.7-3.3-0.8-4.8
						c0.4-0.7,1.1-1.4,1.5-2.1c1.3-2.3-0.4-5.3-3.4-6s-6.6,0.9-7.1,3.4c-0.3,1.3,0.1,2.8-1,3.8c-0.3,0.3-0.7,0.5-1.1,0.8
						c-1.3,1.2-0.3,3.4,1.6,3.7c0.7,0.1,1.6,0.1,2.2,0.5c0.7,0.5,0.7,1.3,0.7,2c-0.1,1.8-0.3,3.8-2,5c-1,0.7-2.4,0.9-3.6,1.5
						c-1.1,0.6-2,2-1.2,2.9c-1.3,0-2.5,0.1-3.8,0.1c-0.1-1.5-0.1-2.9-0.2-4.3c0-0.3,0-0.5-0.3-0.7c-0.2-0.2-0.6-0.1-0.8-0.1
						c-1.7,0.3-3.4,0.7-5,1.3c0.2,0.6,0.2,1.3,0.1,1.9c-1.9,0.3-3.8-0.4-5.6,0c-1.2,0.3-2.2,1-3.4,1.4c-1.1,0.5-2.6,0.6-3.4-0.2
						c-0.4-0.3-0.5-0.8-1-1.1c-0.3-0.2-0.7-0.3-1-0.4c-1.7-0.4-3.6-0.2-5.3-0.6c0.3-1.6-1.3-3-3.1-3.2c-1.8-0.3-3.6,0.3-5.4,0.8
						c-0.9,0.3-2,0.8-2,1.6c0,0.9,1.5,1.1,2.5,0.7c1-0.4,2-1.1,3-0.9c0.4,0.1,0.8,0.3,0.8,0.7c0.1,0.7-1.1,1-2,1.1
						c-3.5,0.4-6.3,4.1-5.3,7.1c-1.9,0.1-3.7-0.8-4.4-2.2c-0.5-1.1-0.7-2.5-1.9-2.8c-0.7-0.2-1.6,0.1-2.4,0.3
						c-4.5,1.4-9.1,0.9-13.5,0.4c-0.3-0.8,0.7-1.7,1.6-2.1c0.9-0.4,2-0.8,2.4-1.7c0.4-0.7,0-1.5-0.6-2c-0.6-0.4-1.4-0.6-2.2-0.7
						c-3.4-0.6-7-0.8-9.7-2.5c-0.7-0.5-1.4-1-2.2-1.4c-1.5-0.7-3.3-0.5-5-0.1c0-0.6,0-1.1,0-1.7c-1.9-0.2-4.2,1.6-4.4,3.5
						c-0.6,0.8-1.9,0.6-2.3-0.1c-0.5-0.7-0.3-1.6-0.2-2.5c0.2-1.8,0.5-3.5,0.7-5.2c-0.8-0.2-1.7,0.7-2.2,1.4
						c-2.3,2.9-4.8,5.9-7.8,8.2s-6.7,4-9.9,3.7c3-4.1,7.5-7.2,12.2-8.5c0.3-0.4-0.2-0.8-0.7-0.8c-3.4-0.3-6.9,2.8-10.4,4
						c-1.8,0.6-3.7,0.8-5.3,2c-1.1,0.8-1.9,2.1-2.8,3.1c-2.4,2.5-6.4,3.2-7.8,0.9c-0.7-1.1-0.8-2.7-1.7-3.5
						c-1.2-1.1-3.3-0.6-4.3-1.8c-0.3-0.3-0.4-0.8-0.7-1.1c-0.7-1-2.1-1-3.5-0.7c-1.3,0.3-2.6,0.9-3.9,1.1c-2.5,0.4-4.6-0.9-7.1-0.4
						c-1.7,0.4-3.8,1.6-4.9,0.6c-0.6-0.6-0.7-1.6-1.2-2.3c-0.8-1.3-2.6-1.3-3-2.9c-0.1-0.4-0.1-0.9-0.3-1.3c-0.2-0.4-0.6-0.5-1-0.2
						c-0.2,0.2-0.3,0.5-0.4,0.7c-0.6,1.2-1.8,1.8-2.9,2c-1,0.2-2,0.1-3,0.7c-1.9,1.2-3.3,4.6-5.2,5.3c-2.6,0.9-4.7,4.6-6.8,7.5
						c-2.4,3.4-5.2,6-7.7,7.4c-1.5,0.8-3.3,1.9-3.8,4.5c-0.5,3.3,1.8,4.9,1.1,8.2c-0.1,0.5-0.3,0.9-0.3,1.4
						c-0.3,2.6,2.1,1.8,2.5,3.9c0.3,1.8-1.2,4.2-2.3,4.5c-1.1,0.3-2.1-0.4-3.1,0.2c0.2-1.7,0.8-3.4,1.6-4.3c-1-0.6-2.3-0.3-3.3,0.9
						c-0.2,0.2-0.5,0.6-0.6,1.1s-0.1,1.1-0.2,1.6c-0.2,1.3-0.8,2.3-1.4,2.8s-1.2,0.8-1.6,1.6c-0.5,0.9-0.8,2.7-0.4,3.4
						c0.2,0.4,0.6,0.4,0.7,1.1c0.1,1.1-0.7,2.2-0.7,3.4c0,0.6,0.2,1,0.4,1.1c1.8,1.4,4.3-4.3,6.8-4.3c0.3,2.1-0.2,4.8-1,6.8
						s-1.9,3.4-2.9,4.3c-1.4,1.3-2.9,2-3.7,4.9c-0.2,0.9-0.4,1.8-0.6,2.6c-0.7,2.4-2,3.3-2.2,6.1c-0.1,1.5,0.2,2.8,0.1,4.2
						c-0.1,1.2-0.3,2.4-0.3,3.5c0,2.1,0.9,2,1.7,1.6c0.2-0.1,0.4-0.2,0.5,0.1s0.1,0.9,0.2,1.5c0,1.4,0,2.8,0,4.2
						c0.5-0.6,1-0.6,1.4,0c0.2,0.2,0.3,0.6,0.5,0.3c0.2-0.2,0.2-0.7,0.3-1.1c0.5-2.7,1.9-2.9,3.1-2.7c-0.6,2.9-1.3,5.7-2.1,8.2
						c-2.3,7.3-4.9,12.2-6.6,17c-0.4,1-0.7,2.3-0.7,4c2.4-4.8,6.3-12.3,10.4-22.1c1.3-3.1,2.8-6.6,4.7-8.4c0.4-0.9-0.5-1.4-0.8-2.2
						c-0.4-1.2,0.5-2.9,1.2-3.8c1.3-1.7,2.5-3.9,3.5-6.5c0.4-1.1,0.8-2.2,1.4-3.1c0.6-0.9,1.3-1.4,1.9-0.9c0.1,1.8-1,3.4-1.9,4.6
						c-0.9,1.2-1.9,3.2-1.5,4.7c1.6-1.9,3.4-3.8,5.1-5.7c0.5-0.5,1-1.1,1.4-1.9c0.2-0.5,0.4-1,0.6-1.4c1.1-2.2,2.9-1.1,4.4-0.5
						c2,0.9,4.3,0.5,6.5,0.9c4.4,0.7,8.5,4.2,11,9.8c0.3-0.3,0.6-1.1,0.8-1.5c0.2-0.2,0.3-0.4,0.5-0.5s0.4-0.2,0.7-0.2
						c0.5-0.1,1.1-0.2,1.6-0.4c0.2,0,0.5-0.1,0.7,0s0.3,0.3,0.5,0.6c0.3,0.6,0.4,1.3,0.4,2c0,0.2,0.1,0.4,0.2,0.5l0,0
						c0.6,1.6,0.2,3.9,0.8,5.6c0.3,0.9,0.8,1.6,1.2,2.4c0.7,1.5,1,3.4,1.4,5.1c0.4,1.7,1,3.2,1.6,4.8c1.4,4.1,2.2,8.4,2.5,13
						c1.1,1.6,2.5,3.3,4.2,3.7c0.5,0.1,1.1,0.1,1.6,0.4c0.8,0.4,1.4,1.5,2.3,1.8c0.5,0.2,1,0,1.5,0.2c1.1,0.3,1.7,1.5,2.3,2.7
						c0.5,1,0.9,2,1,3.2c0.1,1.2-0.3,2.5-1.2,3c-1,0.6-2-0.1-2.9-0.5c-0.9-0.5-2.2-0.6-2.8,0.5c-0.4,0.8-0.3,1.8-0.2,2.7
						c0.5,4.1,0.6,8.2,0.4,12.4c-0.1,1.3-0.2,2.7-0.8,3.9c-0.3,0.7-0.8,1.2-1,2c-0.2,0.7-0.1,1.5-0.1,2.3c0.3,3,0.6,5.4,0.9,8.4
						c0.3,0.5,0,1.3-0.3,1.7c-0.4,0.5-0.8,1.1-0.6,1.7c0.1,0.3,0.2,0.5,0.4,0.7c0.8,1.1,1,2.8,1.5,4.2c0.3,1.1,0.8,2,1.3,3
						c0.7,1.5,1.5,3.1,2.3,4.5c0.5,0.8,1,1.7,1.3,2.6c0.3,0.8,0.3,1.7,0.7,2.4c0.7,1.3,2.2,1.7,2.8,3c0.2,0.5,0.3,1.1,0.6,1.5
						c0.4,0.7,1.2,0.8,1.9,0.8c1.2,0.1,2.4,0.1,3.6,0.2c0.7,0,1.4,0.1,2.1,0.4s1,0.9,1.5,1.5c1.9,2.6,3.6,5.5,5.1,8.6
						c0.4,0.8,0.7,1.6,1.3,2.3c0.5,0.6,1.2,1.1,1.8,1.5c1.1,0.8,2.3,1.5,3.4,2.3c0.7,0.5,1.6,1.3,1.4,2.2c-0.1,0.6-0.7,0.9-1.2,1
						s-1.1,0-1.6,0.1c-0.1,0-0.3,0.1-0.4,0.2c-0.2,0.3,0.1,0.8,0.4,1.1c1.4,1.2,3.3,0.9,4.9,1.5c1.9,0.6,3.6,2.5,4.3,4.7
						c0.2,0.5,0.3,1.1,0.6,1.5c0.4,0.5,1,0.7,1.6,0.8c0.9,0.2,1.8,0.3,2.7,0.8c0.7,0.5,1.3,1.2,2,1.8c0.7,0.6,1.5,1.1,2.3,0.9
						c0.5-0.2,1-0.7,1-1.3c0-0.6-0.3-1.3-0.8-1.6c-0.4-0.2-0.8-0.2-1.3-0.2c-2.1-0.1-4.1-2-4.7-4.3c-0.2-0.7-0.2-1.4-0.5-2
						c-0.7-1.6-2.3-2.4-3.4-3.6c-0.5-0.6-0.9-1.2-1.4-1.7s-1.1-0.9-1.6-1.3c-2.4-1.9-4.1-4.7-5.7-7.4c-0.3-0.5-0.6-1.1-0.8-1.7
						c-0.1-0.6,0-1.3,0.4-1.7c0.4-0.3,0.9-0.3,1.4-0.3c0.7,0.1,1.4,0.2,2,0.7c0.8,0.6,1.2,1.6,1.8,2.5c1.1,1.6,2.6,2.6,3.7,4.2
						c0.5,0.7,0.9,1.6,1.5,2.2c0.4,0.4,0.9,0.7,1.5,0.9c1.9,1,3.8,1.7,5.8,2.7c-0.3,1.6,0.5,3.5,1.9,4.3c1.1,0.6,2.4,0.6,3.6,1.1
						c1.4,0.7,2.3,2.1,3.5,3.2c0.7,0.7,1.5,1.3,2.2,2c0.6,0.5,1.2,1.1,1.7,1.7c0.6,0.6,1.1,1.1,1.7,1.7c0.8,0.8,1.6,1.6,2,2.7
						c0.7,1.9,0.1,4.4,1.6,5.8c0.5,0.4,1.1,0.6,1.7,0.8c3.5,1,7.1,1.4,10.7,2.4c1.1,0.3,2.5,0.8,3.6,1.2c2.8-0.4,5.7,0.2,8.6,0.7
						s5.9,0.7,8.6-0.4c0.9-0.4,1.8-0.9,2.7-1.4c1.6-0.8,3.5-1.1,5.3-1.1c1,0,2,0.2,2.9,0.6c1.5,0.8,2.6,2.5,4.3,2.8
						c1.1,0.2,2.3-0.2,3.4-0.3c1.2-0.1,2.4,0.3,3.6,0.5c3.1,0.7,6.3,0.8,9.5,0.2c1.1-0.2,2.2-0.2,3.3-0.1c0.5,0.1,1,0.2,1.3,0.5
						c0.4,0.3,0.6,0.7,0.9,1.1c1.2,1.5,3.1,2.2,5,2.4c0.6,0.1,1.2,0.1,1.7,0.3c0.6,0.2,1.1,0.7,1.6,1.1c2.6,2.2,6,3.4,9.4,3.5
						c1,0,2,0,2.9,0.3c0.5,0.2,1,0.5,1.5,0.7c1.3,0.6,2.8,0.2,4.1-0.3c0.1-0.4,0-2.2,0.1-2.6c2.6-0.1,4.2-2.5,6.4-1.2
						c0.6,0.4,1.1,1,1.6,1.6c2.4,3,4.8,6.1,5.4,9.8c0.2,1.2,0.2,2.5-0.6,3.6c-0.5,0.7-1.4,1.2-2.1,1.7c-3.7,2.4-6.6,5.7-8.2,9.4
						c-0.5,1.1-0.9,2.4-0.3,3.5c0.9,1.6,3.4,1.7,5.4,1.5c0.1,0.6,0.1,1.1,0.2,1.7c-1.6,0.5-3.2,1.2-4,2.5c-1.5,2.3,0.3,5.2,2.8,6.5
						s5.5,1.5,8.1,2.5c4.5,1.6,7.1,5,9.1,8.6c1.7,0.3,1.6,2.3,2.4,3.5c1,1.5,3.2,2,5.2,2.3c4.4,0.7,8.8,1.3,13.2,1.9
						c1.7,0.2,3.5,0.5,4.8,1.2c3,1.6,3.5,4.9,3.8,7.8c0.4,5.1,0.7,10,0.8,14.5c0,1.3,0,2.5,0.4,3.7c0.3,1,0.9,1.9,1.3,2.9
						c0.6,1.5,0.8,3.1,0.9,4.6c0.1,0.7,0.1,1.4-0.2,2c-0.4,0.8-1.3,1.6-2,2.3c-0.7,0.8-0.9,1.7,0,2.1c1.5,0.6,2.3,1.6,2.2,2.7
						c0,0.7-0.4,1.5-0.5,2.1s0.4,1.3,1.6,1.4c0.9,0.1,2.2-0.2,2.9,0c0.4,0.1,0.5,0.4,0.7,0.6c1.3,3.1-1.4,6.7,1.1,8.4
						c1.5,1.1,4.6,1.5,5.5,2.5c0.1,0.2,0.2,0.4,0.7,0.4c0.3,0.1,0.8,0,1.3,0c2.5-0.1,5.1-0.2,7.6-0.4c0.7,0,1.4-0.1,1.8,0.1
						c0.3,0.1,0.3,0.3,0.7,0.4s1.2,0,1.8-0.1c3.2-0.4,6.4-0.9,9.6-1.4c0.9-0.5,0.1-0.9-1.2-0.8c-1.2,0-2.7,0.2-3.9,0.2
						c-1.1-0.1-1.7-0.3-2.5-0.5c-0.7-0.2-1.8-0.4-2.9-0.1c0.2-0.1,0.2-0.2,0.2-0.2c-0.2-0.1-0.6-0.1-0.9-0.1
						c-1.3-0.1-0.8-0.9-0.3-1.6c0.6-0.7,1.1-1.4,2.3-2.1c0.6-0.4,1.4-0.7,1.9-1.1c1.1-1,0-1.8-1.8-1.9c-0.9,0-2,0.1-3,0
						c-0.9-0.1-1.7-0.4-1.4-1c0.6-1.3,5-1.7,6-3c0.5-0.6,0-1.2,0.7-1.9c0.3-0.2,0.6-0.4,0.9-0.6c0.8-0.6,1-1.4,0.4-1.7
						c-0.6-0.4-1.9-0.3-2.9,0.1c-0.6-0.6-1-1.3-1.1-2c1.6-0.4,3.1-0.8,4.7-1.2c0.8-0.2,1.7-0.4,2.4-0.9c1.1-0.7,1.6-1.6,1.4-2.4
						c-0.2-0.7-1.5-1-2.4-1.4c4.5-0.1,9.6-1.6,13.7-4.1c1.7-1,3.4-2.4,3.3-3.6c-0.1-1.4-2.2-1.7-4-2c-1.2-0.2-2.6-0.5-2.7-1.5
						c3.9,0,8.2-0.1,12-2.3c3.2-1.8,5.3-4.8,5.2-7.4c0-0.8-0.2-1.5,0.2-2.3s1.6-1.7,2.5-1.5c-0.6,0.8-0.9,1.7-0.7,2.5
						c0,0.1,0.1,0.3,0.3,0.3c0.3,0.1,0.7-0.3,1-0.6c2.5-2.6,5.1-5.5,5.3-8.4c0.2-2.2-1.1-4.4,0.4-6.7c0.5-0.8,1.3-1.5,2.1-2.2
						c4.3-3.7,9.4-6.8,14.5-8.8c1.3-0.5,2.8-1.1,3.7-2.3c1-1.4,0.6-3,1.5-4.4c0.6-1,1.8-1.7,2.5-2.6c0.9-1.2,1.1-2.5,1.3-3.8
						c0.4-3.1,0.7-6.2,1-9.4c0.1-1.1,0.2-2.2,0.8-3.3c0.3-0.7,0.8-1.3,1.2-1.9c0.5-1.1,0.6-2.2,1-3.3c0.5-1.1,1.6-2,2.5-1.7
						c3.7-2.9,5.1-8.6,3-11.6C674.2,368.7,673.4,368.1,672.4,368.1z"/>
					<path id="XMLID_316_" class="st0" d="M566.9,133.9c0.5-0.7,1.8-0.6,2.4-1.2c0.8-0.7,0.3-1.9-0.2-2.9c-0.4-0.7-0.8-1.4-1.1-2.1
						c-0.4-0.7-0.8-1.4-1.4-2c-1.4-1.4-3.6-2.1-5.7-2.7c-3.1-0.9-6.3-1.7-9.4-2.6c0-0.9,0.1-1.7,0.1-2.6c0-0.2,0-0.5-0.1-0.7
						c-0.2-0.4-0.9-0.6-1.4-0.8c-1.5-0.4-3.1-0.7-4.7-1c-0.9-0.1-1.8-0.2-2.5,0.1c-0.7,0.3-1,1.1-0.3,1.6c-0.5,0.3-1,0.6-1.5,0.9
						c-0.7,0.2-1.2-0.7-1.8-1.3c-0.9-0.8-2.9-0.4-2.8,0.6c-0.5,0-1-0.1-1.5-0.1c0.9-2.6,1.8-5.2,2.4-7.7c-3.4,0.1-6.7,0.7-10,1.3
						c-1.1,0.2-2.3,0.4-3.2,1c-0.9,0.5-1.5,1.4-1.3,2.3c0.1,0.4,0.4,0.7,0.3,1.1c-0.1,0.4-0.7,0.6-1.1,0.9c-1.1,0.8-0.9,2.2-0.6,3.4
						c0.2,1.2,0.2,2.7-1.1,3.4c-1.1-2.4-2-4.8-2.7-7.2c0.9,0.1,1.7-0.5,1.4-1.2c-0.1-0.2-0.3-0.5-0.4-0.7c-0.2-0.5,0.3-1,0.7-1.4
						c1.6-1.3,3.6-2.2,5.9-2.7c0.5-0.1,0.9-0.2,1.2-0.4c0.3-0.2,0.3-0.7-0.1-0.9c-0.2-0.1-0.5-0.1-0.8-0.1
						c-5.1,0.3-10.8,0.8-13.8,3.7c-1.8,1.8-2.4,4.3-5,5.6c-0.9,0.5-2.1,1.2-1.6,1.9c0.3,0.4,0.9,0.5,1.4,0.6
						c1.2,0.2,2.4,0.4,3.5,0.5c1.3,0.2,3,0.7,3.1,1.8c-2.4-0.2-4.8-0.4-7.3-0.5c-0.5,1.2,1,2.6,2.7,2.9s3.4,0,5-0.2
						c-0.3,0.3-0.4,0.8-0.1,1.1c3.7,0.2,7.5,0.8,11.1,1.8c0.2,0.1,0.5,0.1,0.7,0.2c1.6-0.3,3.4-0.1,5.1,0c1.7,0,3.5-0.1,4.7-1
						c0.3-0.2,0.6-0.5,1-0.7c0.9-0.4,2.2,0,3,0.7c0.7,0.7,1.1,1.6,1.4,2.4c0.3,0.9,0.6,1.8,1.3,2.5c1.8,1.9,5.3,1.9,7.5,3.6
						c1.3,1,2,2.4,2.4,3.7c0.1,0.5,0.3,1,0.1,1.4s-0.7,0.7-1.1,1c-1.9,1.1-3.9,2.3-5.9,3.5c-0.4,0.2-0.9,0.5-0.9,1
						c-0.1,0.7,0.8,1.3,1,2.1c0.3,0.8-0.4,1.7-1.3,2c-0.9,0.3-1.9,0.2-2.9,0.2c-1.9-0.2-3.9-0.3-5.8-0.4c-0.9-0.1-1.8-0.1-2.7,0
						c-1.7,0.3-3.1,1.5-3.4,2.9c-0.1,0.3-0.1,0.5,0,0.8c0.2,0.7,1.1,1.2,1.9,1.3s1.7-0.1,2.5-0.3c3-0.7,6.1-1,9.2-0.8
						c0.6,0,1.2,0.1,1.8,0.3c1,0.5,1.6,1.5,2.6,2c0.5,0.3,1.1,0.3,1.6,0.7c0.5,0.3,0.7,1,0.3,1.3c-0.3,0.1-0.6,0.1-0.9,0.3
						c-0.3,0.2-0.1,0.7,0.2,0.9s0.8,0.3,1.2,0.4c1.8,0.4,3.5,1.4,5.2,2.2c3.2,1.3,6.9,1.4,10,3.1c0.5,0.3,1.3,0.7,1.7,0.3
						c0.2-0.2,0.2-0.5,0.2-0.8c-0.2-1.4-1.3-2.7-2.6-3.6c-1.3-1-2.7-1.7-4.1-2.5c-0.3-0.2-0.5-0.3-0.7-0.6c-0.1-0.3,0.1-0.5,0.4-0.5
						c2.1,0.3,4.1,0.9,6.1,1.8c1.7,0.7,3.6,1.7,5.1,1.2c1.4-0.5,2-2,1.6-3.3c-0.4-1.4-1.5-2.6-2.7-3.6s-2.6-1.9-3.7-2.9
						c-1.1-1.1-2.1-2.3-2.2-3.7c0.8-0.7,1.9-1.4,3-1.8c2.2,1.4,4.4,2.9,6.5,4.3c1,0.7,2.1,1.4,3.2,1.2c0.8-0.1,1.3-0.5,1.9-0.9
						c0.9-0.7,1.7-1.4,2.5-2.1c1.3-1,2.7-2.5,1.8-4.1s-3.4-2-5.5-2.5c-2.9-0.7-5.5-2.3-8.1-3.8C567.8,136.2,566.2,134.9,566.9,133.9
						z"/>
					<path id="XMLID_315_" class="st0" d="M463.3,132.6h-0.1l0,0H463.3z"/>
					<path id="XMLID_314_" class="st0" d="M467.4,128.4c0.7-0.2,1.4-0.7,1.6-1.3c0.1-0.3,0-0.7-0.1-1c-1.1-2.3-5.3-2.7-6.3-5
						c-0.8-1.8,0.7-3.7,1.7-5.4c0.5-1,0.9-2,1-3c0.2-1.3-0.1-2.8-1.6-3.2c-0.9-0.3-1.9-0.1-2.7,0.4c-0.8,0.4-1.4,1-1.9,1.7
						c-0.7,0.8-1.2,1.7-1.4,2.7c-0.1,0.8,0,1.5-0.1,2.3s-0.4,1.6-1.1,2.2c-0.8,0.5-2.1,0.6-2.6-0.1s0.1-1.6,0.4-2.3
						c0.4-0.8,0.5-1.6,0.6-2.4c0.2-1.2,0.3-2.3,0.5-3.5c-0.8-0.1-1.7-0.2-2.3,0.2c-0.7,0.5-0.6,1.3-0.9,2c-0.4,0.8-1.4,1.3-2.4,1.5
						s-2,0.1-3,0c-0.1-0.3,0.2-0.5,0.5-0.7c0.3-0.1,0.7-0.1,1-0.3c1.2-0.5,1-2-0.1-2.3c-1.1-0.4-2.5,0-3.6,0.5s-2.2,1.2-3.4,1.5
						c-0.5,0.1-1.2,0.1-1.3-0.3c0-0.2,0-0.3,0.1-0.5c0.8-1.3,3-2,3.5-3.3c-1.9-0.3-3.9,0.5-5.6,1.4s-3.4,1.9-5.3,2.4
						c-1,0.2-2.1,0.3-3,0.7c-0.9,0.4-1.6,1-2.3,1.6c-1.1,1-2.2,1.9-3.3,2.9c-0.5,0.4-1,1.1-0.6,1.5c0.2,0.2,0.7,0.2,1,0.2
						c2.1-0.2,4.2-0.4,6.3-0.6c0.6-0.1,1.3,0,1.4,0.4c-2.3,0.9-4.6,1.6-7,2.1c-1.2,0.2-2.6,0.6-3.1,1.6c-0.4,0.9,0.4,1.7,1.3,1.9
						c0.9,0.2,2,0,3-0.2c2.2-0.4,4.5-0.7,6.6-0.5c2.2,0.2,4.2,1,5.5,2.4c-4.9,0.2-9.8,0.7-14.6,1.4c-0.9,0.1-1.9,0.3-2.5,0.9
						c-1.2,1.1-0.4,3,1,3.6s3.2,0.4,4.8,0.6c-0.8,1.6,0,3.6,1.8,4.2c2.4,0.7,5.1-1,7.7-1.8c3-1,6.6-0.9,9-2.8
						c0.6-0.5,1.1-1.1,1.8-1.4c0.7-0.3,1.7-0.2,1.9,0.4c0.1,0.2,0.1,0.4,0.2,0.5c0.3,0.4,1,0.2,1.5,0.3c1.1,0.1,1.5,1.3,2.4,1.9
						c0.9,0.5,2,0.3,3.1,0.1c2.2-0.5,4.4-1,6.6-1.5c0.1-0.1,0.2-0.1,0.3-0.2c0.5-0.4,0.7-1.1,0.3-1.5c-0.3-0.2-0.7-0.3-1-0.4
						c-1.1-0.3-1.9-1-2.2-1.9c1.5,0,3.1,0,4.6,0C465.9,128.6,466.7,128.6,467.4,128.4z"/>
					<path id="XMLID_313_" class="st0" d="M463.2,132.6c-0.5,0.1-1,0.3-1.5,0.4C462.2,132.9,462.7,132.8,463.2,132.6z"/>
					<path id="XMLID_312_" class="st0" d="M410.2,117.9c-0.2,0.9-0.3,1.7-0.4,2.6c0,0.2,0,0.4,0.1,0.6c0.2,0.3,0.6,0.3,0.9,0.3
						c1.4,0,3-0.9,3.8-2c0.4-0.5,1.1-1.3,1.6-0.9c-0.3,0.5-0.4,1.1-0.3,1.6c1.5-0.3,2.9-1.1,3.8-2.2c0.5-0.6,0.8-1.3,1.5-1.6
						c0.5-0.2,1-0.3,1.5-0.4c2.4-0.6,4-2.6,6-3.9c2.9-2,6.7-2.5,10.1-3.6c1-0.3,2-0.7,2.8-1.4c0.8-0.6,1.2-1.6,0.8-2.3
						c-0.5-0.9-1.9-1.1-3.2-1.2c-1.4-0.1-2.7-0.2-4.1-0.4c-0.5,0-1-0.1-1.3-0.3c-0.3-0.2-0.4-0.4-0.6-0.6c-1-0.8-2.9-0.2-4.4,0.3
						c-1.4,0.5-2.9,0.8-4.3,0.9c-0.8,0.1-1.8,0.1-2.4,0.7c-0.6,0.5-0.6,1.2-0.8,1.9c-0.4,1.1-1.6,2.2-3,2.6
						c-0.6,0.2-1.3,0.3-1.8,0.7c-0.5,0.4-0.7,1-1,1.6c-1.2,2-4.4,2.6-6.3,4.2c-0.7,0.6-1.2,1.4-1.1,2.2
						C408.9,116.8,409.8,117.2,410.2,117.9z"/>
					<path id="XMLID_311_" class="st0" d="M529.5,328.5c-1.9-0.3-3.8-0.5-5.7-0.7c-2-0.2-3.9-0.4-5.9-0.6c-1.9-0.2-3.9-0.4-5.7-1.1
						c-0.8-0.3-1.6-0.6-2.4-0.5c-0.8,0.2-1.4,0.8-2.2,1c-1.7,0.5-3.4-1.1-5.2-1.4c-1.4-0.2-2.7,0.4-4,1c-1.2,0.5-2.3,1.1-3.5,1.6
						c-0.9,0.4-1.8,0.8-2.4,1.6c-0.6,0.7-1,1.8-0.5,2.7c-0.9,0.1-1.8,0.2-2.7,0.3c0.2,0,0.3,0.1,0.5,0.1c1.9,0.5,3.7-0.7,5.2-2
						c1.5-1.2,3.2-2.7,5.1-2.5c-0.1,0.4-0.2,0.9-0.1,1.4c4.5-0.6,9.1-0.8,13.6-0.6c0.2,0,0.4,0,0.6,0.1c0.5,0.3,0.5,1,0.9,1.5
						c0.4,0.5,1.2,0.5,1.8,0.3c0.6-0.1,1.2-0.4,1.9-0.3c0.6,0.1,1.2,0.7,1,1.3c-0.4,0.8-2,1-1.6,1.8c2.5-0.7,5.1-1.3,7.7-2
						c2.1-0.5,4.2-1.1,6-2.2C531.4,328.9,530.4,328.7,529.5,328.5z"/>
					<path id="XMLID_310_" class="st0" d="M523,336.5c-0.7-0.1-1.5-0.2-2.2,0c-1.1,0.3-2,1.1-3,1.3c-0.4,0-0.8,0.2-1,0.4
						c-0.3,0.4-0.5,0.9-0.3,1.4c1.1,0.1,2.2,0.5,3.3,0.6c1.1,0.1,2.4-0.1,3.2-0.9c0.1-0.1,0.2-0.2,0.4-0.3c0.2-0.1,0.4-0.2,0.6-0.3
						c0.5-0.2,1-0.3,1.6-0.4c0.4-0.1,0.9-0.3,0.9-0.7c0-0.5-0.6-0.7-1.1-0.8C524.5,336.7,523.7,336.6,523,336.5z"/>
					<path id="XMLID_309_" class="st0" d="M535.3,335.3c1.6-0.2,3.2-0.4,4.7-0.6c0.5-0.1,1.1-0.1,1.4,0.3c0.2,0.2,0.2,0.4,0.4,0.6
						c0.6,0.6,1.6-0.1,2-0.9c0.4-0.8,0.6-1.8,1.4-2c0.3-0.1,0.7,0,1-0.1c1.1-0.1,2-1.2,3-1.5c1.1-0.3,2.2,0.1,3.4,0.2
						c1.1,0.1,2.6-0.4,2.7-1.5c0-0.1,0-0.3-0.1-0.4s-0.2-0.1-0.4-0.1c-1.1-0.1-2.2-0.2-3.2-0.3c0.3-0.4,0.8-0.7,1.3-0.8
						c0.1-0.3-0.2-0.5-0.5-0.6c-2.8-1.1-6.1-0.5-9.1,0.1c-0.4,0.1-0.8,0.2-1.2,0.4c-0.3,0.2-0.6,0.4-0.9,0.5
						c-0.8,0.2-1.4-0.5-2.1-0.8c-1.4-0.6-2.9,0.5-4.1,1.6c-0.3,0.2-0.1,0.7,0.3,0.8c0.4,0.1,0.7-0.1,1.1-0.2
						c0.6-0.1,1.3,0.1,1.7,0.6c0,0.2,0.1,0.3,0.1,0.5c0.4,0.9,0.8,1.8,1.3,2.7c-2.2,0.1-4.4,0.2-6.6,0.3c-0.5,0-1,0-1.3,0.3
						c-0.4,0.3-0.6,0.9-0.2,1.2C532.7,335.6,534,335.5,535.3,335.3z"/>
					<path id="XMLID_305_" class="st0" d="M592.2,210.3c-0.4,0.3-0.7,0.6-1,0.9c-0.2,0.4-0.3,0.8-0.5,1.2c-0.3,1-1,1.8-1.6,2.6
						c-1.2,1.7-2.5,3.4-3.7,5.1c-0.2,0.2-0.3,0.5-0.6,0.6c-0.4,0.4-1.1,0.6-1.1,1.2c0,0.4,0.3,0.8,0.8,0.9c0.4,0.1,0.8,0.1,1.3,0
						c1.4-0.3,2.8-0.7,4.2-0.9c0.9-0.1,1.7-0.2,2.6-0.2c2.1-0.1,4.2-0.2,6.2-0.2c0.3,0,0.6,0,0.7,0.3c0.1,0.2,0,0.3-0.1,0.5
						c-0.7,1.2-2.9,0.6-3.6,1.8c0,0.1-0.1,0.1,0,0.2c0,0.1,0.2,0.2,0.3,0.2c0.5,0.1,1.1,0.2,1.6,0.2c0.4,0,0.8-0.1,1-0.3
						s0.2-0.4,0.3-0.7c0.5-1,2.2-0.9,2.6-1.9c0.1-0.3,0-0.7,0.2-1c0.1-0.3,0.5-0.5,0.8-0.3c0.5,0.3,0.4,1,0.2,1.5s-0.5,1-0.4,1.5
						s0.6,0.9,1.1,0.9c0.3,0,0.6-0.2,0.6-0.5c0-0.2-0.2-0.4-0.2-0.6c-0.1-0.5,0.7-0.7,1.2-0.5c-0.3,0.4-0.6,0.8-0.6,1.3
						c0.1,0.5,0.8,0.9,1.1,0.5c0.1-0.2,0.1-0.3,0.2-0.5c0.2,0.1,0.5,0.3,0.7,0.3c0.3,0,0.5-0.2,0.5-0.4c0-0.1-0.1-0.3-0.2-0.4
						c-0.3-0.6-0.2-1.3,0.3-1.7c0.2-0.2,0.6-0.5,0.5-0.8s-0.5-0.3-0.8-0.1c-0.2,0.1-0.4,0.4-0.7,0.5s-0.7,0-0.7-0.3
						c0-0.2,0.1-0.3,0.2-0.5c0.4-0.4,0.9-0.8,1.3-1.2c-0.4-0.2-0.9,0-1.2,0.3s-0.6,0.7-1,0.8c-0.4,0.2-1,0-1.2-0.4
						c-0.1-0.4,0.1-0.7,0.4-0.9c0.4-0.4,0.8-0.8,1.3-1c0.5-0.1,1.3-0.2,1.3-0.7s-0.7-0.7-1.1-0.5c-0.4,0.2-0.7,0.6-1.2,0.7
						c-0.3,0.1-0.8,0.1-1.1-0.1c-0.3-0.2-0.5-0.7-0.4-1c0.3-0.6,1.2-0.5,1.6-1c0.3-0.4,0.1-1-0.3-1.3c-0.4-0.3-1-0.3-1.4-0.1
						s-0.8,0.5-1.2,0.4s-0.6-0.4-1-0.5c-0.3-0.1-0.6,0-0.9,0.1c-1,0.3-2.1,0.3-3.2,0.1c-0.2,0-0.4-0.2-0.4-0.3s0.1-0.2,0.3-0.2
						c0.6-0.2,1.4-0.3,1.4-1c0-0.1,0-0.1-0.1-0.2c-0.1-0.1-0.1-0.1-0.2-0.1c-1.2-0.2-2.5-0.3-3.3,0.5c-0.2,0.2-0.5,0.6-0.8,0.4
						c-0.2-0.2-0.1-0.5,0-0.7c0.4-0.5,1-0.9,1.4-1.4c0.2-0.3,0.3-0.8,0.5-1.1c0.4-0.7,1.2-1.1,1.8-1.5c0.7-0.4,1.4-1,1.5-1.8
						c-0.1,0-0.3-0.1-0.4-0.1c-1.1-0.5-2.1,0.2-2.9,0.9C594.2,208.7,593.2,209.5,592.2,210.3z"/>
					<path id="XMLID_304_" class="st0" d="M483.6,109.4c0.3,0.2,0.5,0.5,0.4,0.9c-1.2-0.2-2.6,0.7-2.4,1.7c-1.2,0-2.6,0-3.3-0.8
						c-0.2-0.2-0.3-0.4-0.4-0.6c-0.4-0.4-1.1-0.6-1.7-0.4s-1.1,0.6-1.1,1.1c0,0.3,0.1,0.6,0.1,1c0,0.5-0.4,0.9-0.6,1.3
						c-0.2,0.5-0.2,1.1,0.3,1.3c0.3,0.2,0.8,0.1,1.2,0.1c2,0,3.7,1.7,3.1,3.3c0.3,0.2,0.5,0.5,0.8,0.7c-0.4,0.5,0.2,1.2,1,1.3
						c0.7,0.1,1.5-0.2,2.1-0.6c0.2-0.2,0.5-0.3,0.6-0.6c0.3-0.5-0.3-1.1-0.8-1.5c1.7,0.5,3.8,0.1,5-0.9c0.4-0.4,0.7-0.8,1.1-1.2
						c0.8-0.7,1.8-1.3,2.4-2.1c0.6-0.8,0.4-2.1-0.8-2.3c-0.5-0.1-1.1,0-1.6,0c-0.5,0.1-1.1,0.1-1.6-0.1c-0.4-0.2-0.5-0.8-0.1-1
						c0.1-0.1,0.3-0.1,0.5-0.1c0.8,0,1.6-0.1,2.4-0.1c0.5,0,1-0.1,1.4-0.3c0.6-0.4,0.5-1.1,1.1-1.5c0.4-0.2,1.2-0.2,1.4-0.6
						c0.2-0.3-0.1-0.6-0.4-0.8c-0.4-0.2-0.8-0.2-1.2-0.2c-1.8-0.1-3.5-0.1-5.3-0.2c-0.7,0-1.3,0-2,0.2c-0.9,0.3-1.9,1-2.8,0.6
						c-0.5,0.6-1.1,1.2-0.9,1.9C481.7,109.6,483.1,110,483.6,109.4z"/>
					<path id="XMLID_303_" class="st0" d="M502.8,113c1.8,0.2,3.5-0.9,4.2-2.1c0.3-0.5,0.4-1.1,1-1.5s1.5-0.6,2.3-0.6
						c0.8-0.1,1.7-0.2,2.3-0.6c0.6-0.4,0.5-1.3-0.3-1.6c-0.4-0.1-0.9-0.1-1.4,0c-0.6,0.1-1.3,0.2-1.9,0.3c-0.3,0-0.6,0.1-0.9,0
						c-0.4-0.1-0.6-0.4-0.8-0.6c-0.6-0.5-1.6-0.6-2.5-0.6c-1.7,0-3.5,0-5.2,0.1c0,0.8-0.1,1.6-0.4,2.4c-0.5-0.3-1-0.7-1.6-1
						c-0.5,1.2-1.3,2.3-2.4,3.3c-0.3,0.3-0.7,0.6-0.9,0.9c-0.4,0.7-0.2,1.4-0.1,2.2c0.1,0.7,0,1.6-0.8,2c-0.1-0.1-0.2-0.1-0.2-0.2
						c0.3,0.2,0.5,0.5,0.5,0.8c1.7-0.4,3.3-1,4.9-1.7c0.4-0.2,0.9-0.4,0.9-0.8c0.1-0.6-0.7-1-1.4-1.3
						C499.5,111.8,501.2,112.9,502.8,113z"/>
					<path id="XMLID_302_" class="st0" d="M512.5,101.2c1.7,2.8,7.1,3.4,11.4,3.6c7.3,0.3,14.9,0.7,21.2-1.1
						c-0.2-0.7-0.4-1.5-0.5-2.2c-3.4,0.1-7.1-1.1-9.4-3c2.3-0.7,5.2-0.3,8-0.1c2.7,0.2,5.8,0,6.9-1.4c0.7-0.9,0.3-2.2,0.8-3.1
						c1.3-2.5,7.7-1.9,11.3-3c2.9-0.9,3.9-2.9,7-3.3c2.6-0.4,6,0.3,9,0.5c0.9,0.1,1.9,0.1,2.5-0.2c0.6-0.2,0.9-0.6,1.1-1
						c1.4-1.9,4.1-3.2,7.7-3.7c0.7,0,1.4,0,2.1-0.1c3.5-0.4,6.9-0.8,10.2-1.2c0.5-0.1,1.1-0.1,1.3-0.3c0.4-0.3-0.4-1-1.6-1.4
						c-1.2-0.4-2.5-0.7-3.8-0.9c-5.4-1-10.8-1.9-16.2-2.7c-1.5-0.2-3.1-0.4-4.5-0.5c-1.6-0.1-2.9,0.1-4.3,0.2
						c-1.9,0.1-4.3-0.1-6.6-0.5c-1.3-0.2-2.5-0.5-3.7-0.6c-2.1-0.1-3.1,0.4-4.7,0.6c-2.4,0.4-6.1,0.2-9.5-0.3
						c-3.4-0.4-7.8-0.9-8.9,0.1c-0.9,0.9,1.9,2.4,4.9,3.1s6.2,1,9.2,1.7c3.7,0.9,7.1,2.5,10.9,2.9c-6.9-0.2-14.5-1.4-21.3-3.2
						c-1.5-0.4-3.1-0.8-4-1.5c-0.5-0.4-0.8-0.7-1.3-1.1c-1.5-0.9-4.5-1.3-6.6-1c-2,0.3-3.3,1.1-4.3,2c-1.1,1-2.1,2.1-2,3.5
						c0,1.4,1.1,3,3.5,4c1.9,0.9,4.4,1.2,6.6,1.9c2.2,0.7,4.3,2,3.8,3.3c-3.9-1.2-7,1.2-10.5,2.2c-1.7,0.5-3.7,0.6-5.7,0.8
						c-2.7,0.3-5.5,0.7-7.6,1.8C512.6,97.3,511.4,99.3,512.5,101.2z"/>
					<path id="XMLID_301_" class="st0" d="M437,94.1c2.2,1,5.2,1.4,8,0.9c1.3-0.2,2.7-0.5,3.6,0c1.4,0.9-0.2,2.8,0.7,4
						c1.1,1.4,4.5,0.6,6,1.7c0.4,0.3,0.6,0.7,1,0.9c0.8,0.4,2.1,0.1,3-0.4s1.5-1.2,2.5-1.5c1-0.4,2.2-0.4,3.3-0.5
						c3-0.1,5.9-0.2,8.9-0.2c2.3,0,5.3-0.6,5.4-2.1c0.1-1.6-3.2-2.3-3.4-3.8c-0.1-0.8,0.5-1.6,0-2.2c-0.7-0.8-2.7-0.4-3.5,0.3
						c-0.8,0.8-0.8,1.8-1,2.7c-0.3,0.9-1,2-2.4,2.2c-1.6,0.2-3.2-0.8-4.7-0.9c0.4,0,0.7-0.1,1.1-0.1c0.8-0.8,0.3-2-0.9-2.5
						c-1.2-0.5-2.7-0.5-4.1-0.3c-0.4,0.1-0.9,0.1-1.3,0c-0.4-0.2-0.4-0.5-0.4-0.8c0.1-1.7,2-3.4,4.4-4c0.6-0.1,1.2-0.3,1.6-0.6
						c0.4-0.4,0-0.9-0.7-1.1s-1.4-0.2-2.2-0.1c-5.3,0.4-10.6,1-15.5,2.8c-2.9,1-5.6,2.5-8.8,3c-0.4,0.1-0.9,0.1-1.2,0.3
						C435.1,92.5,436,93.6,437,94.1z"/>
					<path id="XMLID_300_" class="st0" d="M498.7,82.7c-1.4,1.5-1.4,3.5,0.1,5.3c1.6,0,3.1,0.1,4.7,0.1c-0.5,0.1-1,0.1-1.5,0.2
						c1.4-0.2,3,0.1,4.3,0.6c0.5,0.2,1.1,0.5,1.7,0.5c1.1,0,1.3-0.9,1.1-1.6c-0.2-0.6-0.5-1.4,0.4-1.8c0.3-0.1,0.8-0.1,1.1-0.2
						c2-0.4,2.3-2.2,0.4-2.9c-0.4-0.1-0.8-0.3-1.2-0.4c-0.9-0.5-0.8-1.2-0.8-1.8c-0.1-0.6-0.9-1.4-2.1-1.3c-0.8,0.1-1.1,0.5-1.8,0.7
						c-0.5,0.1-1.2,0.1-1.8,0.1c-1.9,0-3.8,0-5.6,0.1c-0.4,0-0.9,0.1-1.3,0.2c-0.7,0.3-0.6,0.9-0.1,1.3
						C496.9,82.3,497.8,82.5,498.7,82.7z"/>
					<path id="XMLID_299_" class="st0" d="M490.8,99.2c0.1,0.3,0,0.7,0.2,1c0.5,1.3,3.1,1.5,5.1,1.4c-0.3-1.6-0.3-3.4,1.7-4.1
						c0.9-0.3,2.1-0.3,3.1-0.5s2-0.9,1.5-1.5c0.2-0.2,0.4-0.4,0.5-0.6c0.8-0.3,1.3-0.9,1.1-1.4c-0.2-0.6-0.9-1.1-1.8-1.2
						c-1.7-0.2-3.1,0.8-4.2,1.6c-1.1,0.8-3.3,1.6-4.5,0.7c-0.5-0.3-0.6-0.8-1.1-1.1c-1-0.6-3-0.3-3.6-1c-0.2-0.3-0.2-0.6-0.3-0.9
						c-0.1-0.3-0.5-0.6-1-0.5c-1,1.9-0.4,4.2,1.5,6C489.7,97.8,490.6,98.4,490.8,99.2z"/>
					<path id="XMLID_298_" class="st0" d="M706.3,157.8c-1.6-1.3-3.3-1.5-4.8-1.4s-3,0.5-4.8-0.2c-1.1-0.4-2.4-1.2-3.3-1
						c-1,0.3-0.9,2,0.2,3.1c0.2,0.5,0.4,1.1,0.6,1.6c-1.5-0.5-3-1.7-4-3.2c-0.4-0.6-0.8-1.3-1.3-1.7c-0.6-0.5-1.3-0.6-1.8-0.6
						c-1.4,0-2.5,0.7-2.5,2.1c0,1.4,1.5,3.3,2.9,3.5c0.2,0,0.5,0,0.7,0.2c0.6,0.5,0,1.1-0.1,1.7c-0.1,0.9,1.3,1.8,2.2,1.9
						c0.9,0.1,1.8-0.1,2.7,0.4c1.3,0.8,2,2.6,3.3,3.3c0.7,0.3,1.2,0.2,1.8,0.1c2.1-0.5,4.2-1,6.3-1.4c1.2-0.3,2.5-0.5,3.3-1.4
						c0.7-0.7,1-1.8,0.8-3.1C708.2,160.2,707.4,158.7,706.3,157.8z"/>
					<path id="XMLID_297_" class="st0" d="M722.3,201.4c0.4,0.4,0.5,1.2,0.6,1.8c0.2,0,0.5,0,0.7,0.1c0.2,0.2,0.5,0.5,0.5,0.9
						c0,0.3-0.3,0.4-0.5,0.5c-0.5,0.3-0.9,1-0.8,1.9c0.1,0.9,0.8,1.9,1.4,2c0.9,0.1,1.2-1.4,2-1.6c0.4-0.1,0.8,0.1,1.2,0.2
						c1,0.1,1.7-0.7,1.9-2c-0.1-0.1-0.2-0.2-0.3-0.3c0.1-0.1,0.2-0.3,0.3-0.4c-0.2-0.7-0.4-1.5-0.4-2.2c0-0.5,0.1-1,0.1-1.6
						c0-0.5-0.1-1.2-0.4-1.7c-0.3-0.6-0.8-0.7-1.3-0.9c-0.7-0.2-1.4-0.4-2.1-0.6c-0.1,0-0.2-0.1-0.3,0c-0.5,0.1-0.1,1.4-0.4,2
						c-0.2,0.4-0.7,0.4-1.2,0.2s-0.9-0.4-1.3-0.3c-0.4,0.1-0.6,0.9-0.2,1.4C722,201.2,722.2,201.3,722.3,201.4z"/>
					<path id="XMLID_290_" class="st0" d="M636.4,172.1c-0.8,0.3-1.7,0.6-2.6,0.8c-0.6,0.2-1.2,0.4-1.7,0.5c-1,0.3-2,0.6-3,0.9
						c1.8,0.9,3.7,1.3,5.2,0.6c1.3-0.5,2-1.6,2.3-3C636.5,172.1,636.4,172.1,636.4,172.1z M570.2,92.4c0,0.1,0.1,0.3,0.3,0.4
						c3.4-0.5,6.8-1.1,10.3-1.7c-2-0.1-4-0.1-6-0.2C572.5,90.8,569.7,91.1,570.2,92.4z M586.7,39.4c-18.4-6.8-37.4-11.3-56.5-13.5
						c-19.2-2.3-38.6-2.3-57.8-0.2c-64.5,7.2-125.9,38.7-168.4,90.2c-64.3,78-75.8,189.6-29.4,278.7c0.1,0.1,0.1,0.2,0.2,0.3
						c2.4,4.5,4.9,9,7.5,13.4c9,15,19.5,28.7,31.2,41.2c0.1,0.1,0.3,0.3,0.4,0.4c40.4,43,95,70.7,153.2,78.4
						c20.7,2.8,41.9,3,63.1,0.5c6.1-0.7,12.1-1.7,18.1-2.8c52.8-10.3,100.2-37.8,136-76.1c0.1-0.1,0.3-0.3,0.4-0.4
						c16-17.2,29.7-36.6,40.4-57.5c0.1-0.2,0.2-0.3,0.2-0.5c11.9-23.2,20.2-48.4,24.3-74.8c2-13.1,3-26.2,3.1-39.4
						C752.2,172,685.8,76,586.7,39.4z M722.1,317.1c0.2,0.4,0.2,0.9,0.2,1.4c0,0.4,0,0.7,0.1,1c0.3,0.8,0.9,1,1.5,1.3
						c1.1,0.6,1.8,2,2.6,3.1c2.3,3.2,5.3,4.7,7.9,6.1c0.6,0.3,1,1.3,1.4,2.5c-4.9,20.7-12.5,40.5-22.4,59c-0.1,0.2-0.3,0.3-0.3,0.5
						c-5.7,10.7-12.5,20.9-19.5,30.6l0,0c-1,1.6-2.3,3.2-3.5,4.7l0,0c-6,7.8-12.6,15.2-19.5,22.2c-0.1,0.1-0.2,0.3-0.4,0.4
						c-17.1,17.1-36.7,31.7-58.5,43.1c-5.2,2.7-10.4,5.3-15.8,7.6c-4.4,1.9-8.8,3.7-13.3,5.3c-12.1,4.4-24.4,7.8-36.9,10.1
						c-2.3,0.4-4.5,0.8-6.8,1.2c-8.4,1.3-16.9,2.2-25.3,2.7c-1.1,0.1-2.2,0.1-3.3,0.1c-7.2,0.3-14.4,0.3-21.6-0.1
						c-1,0-2.1-0.1-3.1-0.2c-8.5-0.5-16.9-1.5-25.3-2.9c-2.3-0.4-4.6-0.8-7-1.3c-18.2-3.5-36-9.1-52.9-16.6
						c-5.5-2.4-10.8-5-16.1-7.8c-20.5-10.9-39.5-24.7-56.4-41.3c-0.1-0.1-0.3-0.3-0.4-0.4c-5.4-5.4-10.6-11-15.6-17
						c-1.9-2.3-3.9-4.6-5.8-7c-1.2-1.5-2.7-3.1-3.7-4.7l0,0c-6-9.2-12.6-18.9-17.9-28.9c-0.1-0.2-0.1-0.3-0.2-0.5
						c-13.9-26.4-22.6-55.1-26.2-84.4c-0.2-1.2-0.3-2.3-0.4-3.5c-3.1-28.5-1.2-57.4,5.6-85.4c0.2-0.9,0.5-1.9,0.7-2.8
						c5.7-22.3,14.7-43.9,26.9-64c1.6-2.5,3.1-5.1,4.8-7.5c0.5-0.8,1-1.4,1.5-2.2c17-25.1,38.4-46.3,62.7-63.3l0,0
						c0.9-1,1.9-1.4,2.8-2.1c6.9-4.6,14-9,21.3-12.9c5.5-2.9,11.1-5.7,16.8-8.2c16.7-7.4,34.3-13,52.3-16.6c2.3-0.5,4.7-0.9,7.1-1.3
						c8.4-1.4,16.8-2.4,25.3-2.9c1-0.1,2-0.1,3-0.2c7.3-0.4,14.6-0.4,21.9-0.1c1,0,2,0.1,3,0.1c8.4,0.5,16.9,1.4,25.3,2.8
						c2.3,0.4,4.6,0.8,6.9,1.2c0.8,0.2,1.7,0.3,2.5,0.5c17.5,3.6,34.3,9.1,50.2,16.4c5.5,2.5,10.9,5.2,16.2,8.1
						c7.5,4.1,14.8,8.6,21.8,13.5c0.9,0.6,1.9,1.3,2.8,2c4.5,3.2,9,6.6,13.3,10.1c-4.4-1.9-8.9-3.7-13.4-5.2c-0.4,0.1-0.7,0.2-1,0.3
						c-0.1,0-0.2,0.1-0.3,0.1c-1.3,0.6-1.2,1.8-0.8,3c0.1,0.4,0.3,0.9,0.5,1.4c-1.6,0-3.9-0.9-4.8-1.7c-0.5-0.5-0.8-1-1.8-1.3
						c-0.5-0.2-1-0.3-1.5-0.3c-1.6-0.3-3.3-0.5-4.5-0.4s-1.7,0.9-0.4,1.6c-1,0.5-3.7-0.1-5.5-0.9c-0.1,0-0.2,0-0.3,0l0,0l-0.1-0.3
						c-1.4-0.6-3.1-1.7-4.5-1.7l0,0c-0.2,0-0.4,0-0.6,0h-0.2c-0.7,0-1.2,0.3-1.6,0.6c-0.1,0-0.1,0.1-0.2,0.1c-0.7,0.6-1.1,1.4-3,1
						c-0.2,0-0.3-0.1-0.5-0.1c0,0,0,0-0.1,0c-1-0.3-1.9-0.8-2.9-1.3c-1.1-0.5-3.1-0.9-3.2-0.4c1.8,1.1,0.1,2.1-2.2,2.1
						c-2.4,0-5.2-0.5-7.6-0.5c-2.4,0-4.4,0.9-2.8,2.2c0.9-0.3,2.7,0.3,3.3,1c0.1,0.1,0.2,0.3,0.3,0.4c0.2,0.5-0.1,1-0.6,1.3
						c-0.4,0.3-0.9,0.5-1.4,0.6c-0.8,0.2-1.8,0.4-2.8,0.4c-1.7,0.1-3.6-0.2-5.4-0.2c-0.5,0-1.1-0.3-1.6-0.3l0,0c-2,0-4,0.1-6,0
						c-2.2-0.1-5,0.3-4.5,1.6c0,0.1,0.1,0.3,0.3,0.4c0.6,0.7,1.9,1.2,3.2,1.6c0.4,0.1,0.9,0.3,1.3,0.3l0,0c2.1,1,4.2,1.1,6.3,1.3
						c1.1,1-1.5,1.4-3.2,0.8c-1.7-0.5-4.1-1.3-4.8-0.4c-0.2,0.3-0.1,0.7,0,1.1c0.5,1.5,1.2,3.1,2,4.7c6.7,0.3,13.6,1.6,20.3,3.8
						c1.2,0.4,2.4,0.8,3.6,1.3c1,0.4,2,0.8,3,1.3c0,0.8,0.1,1.6,0.1,2.3c0.2,2,0.7,4.2,1.3,6.4c0.1,0.2,0.1,0.5,0.2,0.7
						c0.3,0.8,0.5,1.6,1.1,2.4c0.1,0.2,0.3,0.4,0.5,0.7c0.7,0.8,1.6,1.4,2.4,2.1c0.9,0.9,1.6,1.9,2.2,2.9c1.4,2.3,2.8,4.7,4.3,7.2
						c0.5,0.9,1.1,1.9,1,2.8c-0.1,1.5-1.8,2.2-3.3,2.9c-0.4,0.2-0.9,0.5-1.2,0.7c-0.4,0.3-0.7,0.6-1,1c-1.1,1.5-1.3,3.7-0.9,5.8
						c0.6,2.7,2.1,5.4,3.6,8c1,1.9,2.1,3.8,3.3,5.7c1.4,2.3,2.9,4.5,4.6,6.6c1.6,2,3.5,4,5.6,5.6l0,0c0.9,0.7,2,1.4,3.1,1.9
						c1.8,0.9,3.7,1.3,5.2,0.6c1.3-0.5,2-1.6,2.3-3c0.2-0.9,0.3-1.9,0.3-3s0-2.2,0.1-3.3c0.6-6.8,6.9-10.2,12.5-12.9
						c2.4-1.1,4.7-2.2,7-3.3c2.9-1.4,5.8-2.6,8.8-3.6c2.3-0.7,4.7-1.2,7-1.8c1.6-0.4,3.2-0.8,4.8-1.3c0.9-0.3,1.8-0.5,2.7-0.8
						c0.1,0,0.2-0.1,0.3-0.1c3.1-0.9,6.4-2.2,6.4-5.4c0-2.6-2.3-5.8-2.2-8.1c0.1-1.8,1.4-2.8,1.5-4.5c0-0.9-0.2-1.9-0.6-2.9
						c5.7,6.8,11.1,13.9,16,21.2c0.5,0.8,1,1.5,1.5,2.3c9.7,14.8,17.9,30.7,24.3,47.4c0,0.5,0,1,0.3,1.5c0.2,0.3,0.4,0.6,0.6,0.8
						c0.3,0.7,0.5,1.4,0.7,2.1c0,0.2,0.1,0.2,0.2,0.4c0.9,2.6,1.8,5.6,2.6,7.6l0,0c-0.1,1,0,1,0.2,1.5c0.1-0.1,0.1,0,0.2,0
						c0.2,0.6,0.4,1.3,0.6,1.9c-0.1,0.1-0.2,0.2-0.3,0.2c-0.3,0.1-0.7-0.1-1.1-0.3c-0.1,0.5,0.3,1.3,0.6,1.4c0.1,0,0.3,0,0.4,0.1
						c0.1,0.1,0.2,0.3,0.3,0.4c0.2,0.1,0.3,0.1,0.5,0c0.2,0.5,0.3,1.1,0.5,1.6c-0.3-0.1-0.6-0.2-1-0.4c0.1,0.4-0.1,0.7-0.3,0.9
						c-0.3,0.3-0.6,0.6-0.9,0.9c-0.2,0.2-0.5,0.7-0.3,1.1c0.6,0.5,1.1-0.3,1.7-0.2c0.3,0,0.6,0.3,1,0.3c0.1,0,0.3,0,0.4-0.1
						c0.2,0.6,0.4,1.3,0.5,2c0.2,0.8,0.3,1.5,0.5,2.3c-0.1,0.2-0.4,0.5-0.4,0.7l0,0v0.2c0,0.5,0,1.1,0.2,1.7c0.3,1,0.9,1.6,1.5,2.2
						c0.8,3.3,1.5,6.6,2.1,9.9c-0.1,0.1-0.1,0.2-0.2,0.2c-0.9,0.7-2.1-0.9-3.3-1.8c-1.6-1.2-3.4-1.1-4.8,0.2
						c-1.4,1.2-2.4,3.5-2.8,6.1c-0.2,1.3-0.3,2.8,0,4.3c0.3,1.2,0.8,2.3,1.3,3.3c1.7,2.8,4,4,6,4.1s3.6-0.9,5.1-1.9
						c0.3-0.2,0.6-0.5,0.8-0.9c0.3,2.2,0.5,4.4,0.7,6.6c-0.5,0.6-1,0.9-1.6,0.7c-0.7-0.2-1.5-0.4-2.3-0.5c-0.9-0.3-1.9-0.7-2.9-1
						c-0.2-0.1-0.4-0.1-0.6,0c-0.8,0.4-0.1,2.7-0.4,4.1c-0.4,2.2-2.8,1-3.5,2.9c-0.2,0.5-0.3,1.3-0.3,2c-0.1,2.7-0.2,5.5-0.3,8.2
						c-1.2,0.9-2.7,0.4-4,1.2c-0.7,0.4-1.3,1.3-1.8,2.1c-1,1.5-2,3-3.1,4.5c-0.7,1-1.4,2-1.9,3.2c-1,2-1.5,4.5-2,6.9
						c-0.2,0.9-0.4,1.9,0,2.7c0.2,0.5,0.6,0.8,0.9,1.2c0.7,1,0.8,2.4,0.8,3.8c0.2,3,3.8,15.4,2.8,18c-0.4,1.1-0.9,2.5-0.4,3.4
						l0.1,0.1C721.2,316.6,721.8,316.6,722.1,317.1z M636.4,172.1c-0.8,0.3-1.7,0.6-2.6,0.8c-0.6,0.2-1.2,0.4-1.7,0.5
						c-1,0.3-2,0.6-3,0.9c1.8,0.9,3.7,1.3,5.2,0.6c1.3-0.5,2-1.6,2.3-3C636.5,172.1,636.4,172.1,636.4,172.1z"/>
				</g>
			</g>
		</g>
	</g>
	<g id="XMLID_6_">
		<polygon id="XMLID_110_" class="st1" points="796.7,154.6 796.7,198.6 674.7,198.6 674.7,495.6 634.7,495.6 634.7,198.6 
			513.7,198.6 513.7,154.6 634.7,154.6 634.7,60.6 674.7,60.6 674.7,154.6 		"/>
	</g>
	<path id="XMLID_152_" class="st0" d="M726.2,391.6c-0.1,0.2-0.2,0.3-0.2,0.5c-10.8,20.9-24.4,40.3-40.4,57.5H312.9
		c-11.6-12-22.2-26.1-31.2-41c-0.5-0.8-0.9-1.5-1.4-2.3c-2-3.2-3.9-6.3-5.5-9.6v-5.1H726.2z"/>
	<g id="XMLID_4_">
		<path id="XMLID_109_" class="st2" d="M324.5,410.9h-8.7v-3.2h21.3v3.2h-8.8v25.6h-3.8V410.9z"/>
		<path id="XMLID_118_" class="st2" d="M344,407.7v12h13.9v-12h3.8v28.8h-3.8V423H344v13.5h-3.7v-28.8H344z"/>
		<path id="XMLID_120_" class="st2" d="M383,423h-11.2v10.4h12.5v3.1h-16.2v-28.8h15.5v3.1h-11.8v9.1H383V423z"/>
		<path id="XMLID_124_" class="st2" d="M401.3,436.5l-7.3-28.8h3.9l3.4,14.5c0.9,3.6,1.6,7.2,2.1,9.9h0.1c0.5-2.9,1.4-6.3,2.3-10
			l3.8-14.5h3.9l3.5,14.6c0.8,3.4,1.6,6.8,2,9.9h0.1c0.6-3.2,1.4-6.4,2.3-9.9l3.8-14.5h3.8l-8.1,28.8H417l-3.6-15
			c-0.9-3.7-1.5-6.5-1.9-9.4h-0.1c-0.5,2.9-1.2,5.7-2.2,9.4l-4.1,15H401.3z"/>
		<path id="XMLID_126_" class="st2" d="M457.3,421.8c0,9.9-6,15.1-13.4,15.1c-7.6,0-12.9-5.9-12.9-14.6c0-9.1,5.7-15.1,13.4-15.1
			C452.2,407.2,457.3,413.2,457.3,421.8z M434.9,422.2c0,6.1,3.3,11.6,9.2,11.6c5.9,0,9.2-5.4,9.2-11.9c0-5.7-3-11.7-9.2-11.7
			C438,410.3,434.9,415.9,434.9,422.2z"/>
		<path id="XMLID_132_" class="st2" d="M462.1,408.1c1.9-0.4,4.6-0.6,7.1-0.6c4,0,6.5,0.7,8.3,2.3c1.5,1.3,2.3,3.2,2.3,5.5
			c0,3.8-2.4,6.3-5.4,7.3v0.1c2.2,0.8,3.5,2.8,4.2,5.8c0.9,4,1.6,6.8,2.2,7.9H477c-0.5-0.8-1.1-3.3-1.9-6.9c-0.9-4-2.4-5.5-5.8-5.6
			h-3.5v12.5h-3.7L462.1,408.1L462.1,408.1z M465.8,421.2h3.8c4,0,6.5-2.2,6.5-5.5c0-3.7-2.7-5.3-6.6-5.4c-1.8,0-3.1,0.2-3.7,0.3
			L465.8,421.2L465.8,421.2z"/>
		<path id="XMLID_137_" class="st2" d="M485,407.7h3.7v25.6H501v3.1h-16V407.7z"/>
		<path id="XMLID_143_" class="st2" d="M505.2,408.1c2.3-0.3,4.9-0.6,7.9-0.6c5.3,0,9.1,1.2,11.6,3.6c2.6,2.3,4.1,5.7,4.1,10.3
			c0,4.7-1.5,8.5-4.1,11.2c-2.7,2.7-7.1,4.1-12.7,4.1c-2.6,0-4.9-0.1-6.7-0.3L505.2,408.1L505.2,408.1z M508.9,433.5
			c0.9,0.2,2.3,0.2,3.8,0.2c7.9,0,12.2-4.4,12.2-12.2c0-6.8-3.8-11.1-11.6-11.1c-1.9,0-3.4,0.2-4.4,0.4V433.5z"/>
		<path id="XMLID_146_" class="st2" d="M546.3,407.7v28.8h-3.7v-28.8H546.3z"/>
		<path id="XMLID_155_" class="st2" d="M552.8,436.5v-28.8h4.1l9.2,14.5c2.1,3.4,3.8,6.4,5.2,9.3h0.1c-0.3-3.8-0.4-7.3-0.4-11.8v-12
			h3.5v28.8h-3.8l-9.1-14.6c-2-3.2-3.9-6.5-5.4-9.6h-0.1c0.2,3.6,0.3,7.1,0.3,11.9v12.3L552.8,436.5L552.8,436.5z"/>
		<path id="XMLID_157_" class="st2" d="M589.9,436.5v-28.8h4.1l9.2,14.5c2.1,3.4,3.8,6.4,5.2,9.3h0.1c-0.3-3.8-0.4-7.3-0.4-11.8v-12
			h3.5v28.8h-3.8l-9.1-14.6c-2-3.2-3.9-6.5-5.4-9.6h-0.1c0.2,3.6,0.3,7.1,0.3,11.9v12.3L589.9,436.5L589.9,436.5z"/>
		<path id="XMLID_159_" class="st2" d="M632.9,423h-11.2v10.4h12.5v3.1H618v-28.8h15.5v3.1h-11.8v9.1h11.2V423z"/>
		<path id="XMLID_263_" class="st2" d="M653.9,423h-11.2v10.4h12.5v3.1H639v-28.8h15.5v3.1h-11.8v9.1h11.2V423z"/>
		<path id="XMLID_265_" class="st2" d="M660,408.1c2.3-0.3,4.9-0.6,7.9-0.6c5.3,0,9.1,1.2,11.6,3.6c2.6,2.3,4.1,5.7,4.1,10.3
			c0,4.7-1.5,8.5-4.1,11.2c-2.7,2.7-7.1,4.1-12.7,4.1c-2.6,0-4.9-0.1-6.7-0.3L660,408.1L660,408.1z M663.7,433.5
			c0.9,0.2,2.3,0.2,3.8,0.2c7.9,0,12.2-4.4,12.2-12.2c0-6.8-3.8-11.1-11.6-11.1c-1.9,0-3.4,0.2-4.4,0.4V433.5z"/>
	</g>
</g>
</svg>
